<?xml version="1.0" standalone="no"?>
<!DOCTYPE svg PUBLIC "-//W3C//DTD SVG 20010904//EN"
 "http://www.w3.org/TR/2001/REC-SVG-20010904/DTD/svg10.dtd">
<svg version="1.0" xmlns="http://www.w3.org/2000/svg"
 width="1008.000000pt" height="1008.000000pt" viewBox="0 0 1008.000000 1008.000000"
 preserveAspectRatio="xMidYMid meet">
<metadata>
Created by potrace 1.11, written by Peter Selinger 2001-2013
</metadata>
<g transform="translate(0.000000,1008.000000) scale(0.100000,-0.100000)"
fill="#000000" stroke="none">
<path d="M4948 7595 c-1 -1 -21 -5 -43 -8 -59 -8 -192 -43 -254 -67 -69 -27
-206 -95 -242 -120 -15 -11 -30 -20 -33 -20 -7 0 -194 -133 -223 -158 -10 -9
-52 -46 -93 -82 -126 -110 -306 -303 -334 -358 -38 -73 18 -175 100 -183 63
-6 91 10 166 94 231 260 445 433 665 538 56 27 110 49 118 49 9 0 29 7 45 15
17 9 31 15 32 14 3 -2 25 2 98 16 32 6 199 7 226 1 12 -2 37 -7 55 -10 81 -14
143 -34 247 -82 62 -29 256 -145 272 -164 3 -3 18 -16 34 -28 165 -127 381
-356 563 -597 85 -114 304 -444 308 -465 0 -3 12 -23 26 -45 14 -22 28 -45 32
-51 9 -16 -6 -49 -74 -164 -90 -151 -302 -460 -354 -516 -5 -6 -23 -29 -40
-50 -109 -140 -281 -317 -420 -432 -119 -98 -125 -102 -129 -102 -3 0 -32 -18
-65 -40 -33 -22 -63 -40 -66 -40 -4 0 -20 -9 -36 -21 -16 -11 -29 -18 -29 -14
0 3 -10 -1 -22 -9 -13 -7 -54 -25 -93 -39 -211 -77 -392 -81 -605 -11 -113 37
-339 166 -432 246 -14 13 -45 39 -69 58 -53 43 -229 219 -291 291 -98 113
-100 116 -194 244 -96 130 -244 352 -244 366 0 5 -4 9 -9 9 -5 0 -11 8 -15 18
-3 9 -10 24 -16 32 -5 8 -53 87 -106 175 -180 299 -390 606 -562 822 -89 111
-276 302 -394 401 -93 79 -285 212 -304 212 -7 0 -14 3 -16 8 -2 6 -71 43 -88
47 -3 1 -21 8 -40 17 -49 21 -150 56 -180 62 -14 3 -36 7 -50 11 -63 14 -183
16 -882 16 -711 1 -749 0 -779 -17 -18 -11 -37 -28 -43 -39 -6 -11 -13 -22
-16 -25 -14 -14 -8 -86 9 -114 43 -69 -4 -65 832 -66 415 -1 772 -3 794 -6
210 -28 474 -181 710 -411 106 -104 268 -283 289 -320 8 -15 20 -30 60 -76 10
-12 48 -65 84 -117 36 -52 69 -97 72 -100 3 -3 10 -13 15 -23 6 -9 53 -83 106
-165 53 -81 146 -231 207 -333 100 -167 226 -367 249 -394 5 -5 19 -26 32 -45
40 -57 185 -254 199 -269 7 -8 21 -25 30 -40 24 -36 62 -78 182 -200 139 -141
213 -206 325 -287 75 -54 182 -124 190 -124 3 0 22 -10 43 -23 20 -13 62 -33
92 -46 30 -13 69 -29 85 -37 17 -7 39 -15 50 -17 11 -1 25 -6 31 -9 5 -4 57
-16 115 -28 261 -54 518 -12 794 128 50 25 92 48 95 51 3 4 32 24 65 45 266
173 567 478 810 821 28 39 60 84 71 100 12 17 57 87 100 157 44 70 82 127 85
128 4 0 43 -58 88 -129 226 -359 528 -717 783 -929 309 -256 636 -395 928
-395 382 1 744 182 1134 568 117 115 209 221 224 258 31 72 -14 159 -91 177
-63 14 -88 2 -162 -78 -127 -136 -277 -283 -349 -340 -39 -31 -72 -60 -74 -64
-2 -4 -10 -8 -17 -8 -7 0 -15 -3 -17 -8 -11 -26 -222 -142 -328 -181 -286
-104 -567 -65 -868 122 -37 23 -69 44 -72 47 -3 3 -21 17 -40 30 -38 27 -52
38 -114 90 -49 41 -258 250 -301 300 -56 65 -112 135 -150 185 -21 28 -42 52
-47 53 -4 2 -8 9 -8 15 0 6 -9 20 -19 31 -23 25 -229 333 -242 361 -5 11 -18
34 -28 50 -22 35 -85 146 -131 230 -275 502 -576 896 -910 1195 -58 52 -251
194 -316 233 -64 38 -246 128 -267 131 -7 1 -17 5 -23 8 -12 8 -156 46 -205
54 -38 7 -295 14 -301 9z"/>
<path d="M8559 7596 c-2 -2 -24 -7 -49 -10 -61 -8 -80 -12 -112 -25 -16 -6
-28 -8 -28 -6 0 14 -251 -93 -325 -138 -51 -31 -191 -121 -195 -127 -3 -3 -36
-30 -75 -60 -121 -93 -304 -274 -430 -425 -22 -26 -45 -53 -50 -59 -6 -6 -41
-51 -79 -101 -37 -49 -74 -98 -82 -108 -8 -9 -14 -22 -14 -27 0 -6 -4 -10 -10
-10 -21 0 -8 -33 45 -122 30 -50 55 -93 55 -95 0 -2 7 -15 17 -29 l16 -25 29
33 c15 18 28 36 28 40 0 8 135 192 179 244 14 17 44 52 66 80 232 285 518 519
765 625 144 62 234 79 390 75 170 -4 249 -25 420 -109 201 -99 460 -314 642
-533 78 -93 146 -117 215 -74 43 26 62 65 58 122 -2 41 -11 57 -65 121 -61 73
-259 271 -335 336 -253 214 -532 357 -779 397 -41 7 -291 15 -297 10z"/>
<path d="M4974 6932 c-41 -21 -65 -43 -76 -72 -14 -37 -12 -1970 2 -2001 15
-33 74 -72 113 -74 51 -4 99 24 122 70 20 39 20 57 20 1015 0 929 -1 976 -19
1006 -22 37 -43 51 -94 62 -29 7 -47 5 -68 -6z"/>
<path d="M8634 6938 c-47 -10 -92 -52 -100 -94 -4 -16 -6 -464 -7 -996 l0
-967 24 -35 c47 -69 140 -81 201 -26 45 41 45 31 44 1056 -1 936 -2 971 -20
1000 -34 51 -84 74 -142 62z"/>
<path d="M4425 6728 c-31 -18 -45 -34 -59 -70 -11 -27 -13 -183 -12 -808 1
-732 2 -776 19 -802 41 -60 110 -79 175 -47 76 38 73 -7 73 864 0 856 3 812
-64 854 -38 23 -100 27 -132 9z"/>
<path d="M5517 6725 c-50 -17 -75 -41 -86 -80 -4 -17 -8 -373 -8 -791 0 -854
-4 -807 74 -845 73 -35 156 -4 184 69 14 36 11 1542 -3 1578 -12 32 -56 67
-98 77 -14 3 -42 0 -63 -8z"/>
<path d="M8065 6716 c-76 -42 -72 10 -71 -856 1 -743 2 -776 20 -806 53 -89
199 -76 236 20 7 20 15 1448 8 1560 -2 27 -73 96 -100 97 -13 0 -30 2 -39 4
-9 1 -34 -7 -54 -19z"/>
<path d="M9127 6721 c-66 -43 -62 16 -62 -856 0 -739 1 -793 18 -818 26 -39
60 -58 110 -60 52 -1 89 19 117 66 19 31 20 56 20 805 0 851 2 823 -62 862
-41 25 -104 26 -141 1z"/>
<path d="M80 6494 c-19 -8 -45 -30 -58 -49 l-22 -35 2 -958 3 -957 22 -45 c29
-59 82 -112 141 -141 l47 -24 731 -2 c781 -1 799 0 954 49 179 58 395 186 575
343 89 78 272 265 299 308 47 71 4 177 -78 192 -64 13 -93 0 -155 -69 -134
-147 -333 -321 -451 -394 -100 -61 -300 -151 -300 -135 0 3 -6 1 -12 -5 -7 -5
-40 -13 -73 -18 -84 -10 -1406 -12 -1427 -2 -16 8 -17 67 -17 926 0 567 -4
928 -10 943 -12 32 -66 79 -91 79 -10 0 -24 2 -32 5 -7 2 -29 -3 -48 -11z"/>
<path d="M1040 6347 c-64 -42 -63 -37 -63 -507 0 -442 1 -451 42 -491 31 -29
76 -35 246 -33 218 2 254 9 369 66 93 47 201 164 233 253 6 17 14 39 19 50 15
40 16 52 20 140 7 177 -67 336 -204 437 -120 89 -191 106 -435 108 -186 1
-194 0 -227 -23z m490 -265 c98 -51 143 -126 144 -237 0 -83 -24 -137 -85
-193 -59 -55 -106 -69 -236 -71 l-113 -2 -1 41 c0 22 0 135 0 250 0 116 0 217
0 226 1 14 17 15 124 12 105 -3 128 -6 167 -26z"/>
<path d="M6055 6202 c-34 -8 -63 -32 -82 -70 -16 -33 -18 -63 -17 -268 1 -218
2 -234 22 -266 12 -19 33 -41 48 -49 39 -20 106 -16 142 9 53 38 59 72 57 327
l-1 231 -28 37 c-15 20 -36 39 -46 42 -27 9 -73 12 -95 7z"/>
<path d="M7535 6190 c-41 -20 -63 -46 -71 -84 -2 -11 -5 -121 -5 -242 -1 -186
2 -227 15 -255 46 -94 175 -101 233 -13 16 25 18 54 18 264 1 260 -3 283 -56
321 -42 30 -86 33 -134 9z"/>
<path d="M9633 6021 c-54 -34 -66 -63 -67 -157 0 -69 3 -88 20 -111 66 -88
162 -89 227 -1 26 34 28 168 3 215 -33 66 -123 92 -183 54z"/>
<path d="M3907 6009 c-42 -32 -57 -70 -57 -144 0 -110 39 -163 125 -169 38 -2
53 2 85 25 47 34 58 67 55 161 -3 72 -16 99 -62 129 -38 26 -110 24 -146 -2z"/>
<path d="M17 3003 c-2 -5 -3 -114 -3 -243 l1 -235 155 0 155 0 3 51 3 50 -98
0 -98 0 -1 35 c0 55 3 58 69 57 34 0 67 0 72 1 9 1 10 20 6 88 -1 8 -26 13
-73 15 l-73 3 -1 30 c-1 48 4 53 54 53 26 0 66 1 90 1 l42 1 0 50 0 50 -149 0
c-83 0 -151 -3 -154 -7z"/>
<path d="M510 2767 l0 -244 58 2 57 1 3 74 3 75 60 2 c46 1 69 7 99 27 111 73
95 241 -26 292 -22 9 -72 14 -144 14 l-110 0 0 -243z m218 123 c47 -44 16
-106 -55 -114 l-43 -4 0 67 0 67 38 2 c26 2 44 -4 60 -18z"/>
<path d="M1125 3000 c-3 -5 -8 -18 -10 -27 -6 -26 -142 -421 -149 -432 -8 -12
11 -17 68 -16 48 0 48 0 63 45 9 25 20 48 25 51 5 3 39 5 75 5 l66 -1 17 -50
17 -50 57 0 c56 -1 58 0 53 25 -4 25 -73 232 -86 260 -4 8 -20 57 -37 107
l-29 93 -62 0 c-34 0 -65 -4 -68 -10z m80 -163 c4 -23 11 -46 15 -52 4 -5 10
-21 12 -35 3 -23 0 -25 -44 -26 -48 -2 -48 -2 -31 44 9 24 9 23 18 67 5 22 8
44 7 48 -1 5 2 6 7 3 5 -3 12 -25 16 -49z"/>
<path d="M1589 2988 c0 -13 -2 -39 -4 -58 -12 -134 -27 -328 -29 -375 -1 -29
0 -30 52 -30 30 0 57 4 60 10 7 10 12 83 15 207 1 37 5 64 8 60 3 -4 16 -36
28 -72 12 -36 25 -72 28 -80 4 -8 7 -18 7 -22 2 -15 20 -23 61 -25 52 -3 53
-1 96 122 15 44 28 76 29 70 1 -11 6 -71 15 -185 3 -41 10 -77 16 -81 9 -5 60
-5 101 0 4 1 5 31 2 69 -7 91 -11 143 -19 237 -11 119 -13 149 -14 163 -1 9
-18 12 -67 10 l-66 -3 -27 -75 c-14 -41 -27 -77 -27 -80 -1 -3 -10 -31 -20
-63 l-18 -57 -46 137 -47 138 -66 3 c-64 3 -67 2 -68 -20z"/>
<path d="M2567 3002 c-16 -3 -17 -24 -15 -240 l3 -237 143 0 142 0 0 27 c0 31
7 29 -120 33 -47 1 -90 3 -96 4 -11 1 -10 128 1 140 4 3 32 7 63 7 107 3 102
2 102 32 l0 28 -77 -1 c-43 -1 -82 0 -88 2 -6 2 -10 35 -9 75 l1 73 99 1 c54
1 103 2 107 3 4 0 6 13 4 28 l-4 27 -119 0 c-66 1 -128 0 -137 -2z"/>
<path d="M3038 3001 c-6 -24 -3 -467 4 -472 5 -3 20 -4 34 -1 l24 4 0 180 0
181 76 -114 c43 -63 81 -115 85 -117 5 -2 9 -10 9 -18 0 -8 4 -14 9 -14 5 0
16 -15 25 -32 31 -63 43 -72 91 -69 20 1 20 7 19 229 -1 125 -2 232 -3 238 -1
11 -39 13 -56 2 -6 -4 -9 -74 -9 -182 1 -102 -2 -174 -7 -170 -5 3 -9 10 -9
15 0 5 -18 34 -40 64 -22 30 -40 58 -40 64 0 5 -3 11 -8 13 -4 2 -37 48 -74
102 -59 88 -71 100 -97 101 -17 1 -32 -1 -33 -4z"/>
<path d="M3742 2985 c-84 -43 -132 -121 -132 -218 0 -94 37 -166 109 -212 76
-47 162 -50 236 -6 l34 20 3 -22 c3 -20 10 -23 48 -18 6 1 10 48 10 120 l0
119 -67 -1 c-66 -2 -68 -3 -71 -29 -3 -29 8 -34 61 -29 13 2 17 -6 17 -36 0
-32 -5 -42 -36 -62 -43 -29 -133 -37 -176 -15 -75 39 -113 124 -93 209 15 67
32 91 84 122 37 21 52 24 100 20 31 -2 72 -12 91 -22 32 -17 34 -17 47 1 19
27 16 39 -14 54 -40 19 -51 21 -128 27 -61 4 -76 1 -123 -22z"/>
<path d="M4250 2769 c0 -129 2 -238 5 -241 3 -2 18 -3 34 0 l28 4 2 131 c0 73
1 139 1 147 0 78 -6 180 -13 186 -4 4 -18 8 -32 9 l-25 1 0 -237z"/>
<path d="M4546 2990 c-3 -12 -1 -444 3 -460 1 -3 15 -5 31 -5 34 -1 33 -15 31
239 l-1 129 71 -104 c38 -57 94 -139 122 -181 44 -65 57 -77 84 -80 18 -2 34
1 36 7 2 5 3 113 3 240 l-1 229 -33 1 c-37 1 -34 20 -34 -203 l0 -163 -34 51
c-61 93 -159 235 -165 240 -4 3 -16 21 -27 40 -17 27 -28 35 -52 35 -19 1 -31
-5 -34 -15z"/>
<path d="M5167 3002 c-15 -3 -17 -26 -17 -237 0 -177 3 -234 13 -237 6 -2 71
-4 142 -4 129 1 130 1 133 25 2 13 -1 27 -7 30 -6 4 -55 6 -110 5 l-99 -1 -4
51 c-1 28 -2 63 0 78 l3 27 85 -2 84 -2 0 30 0 31 -82 -1 -83 0 -6 44 c-3 24
-3 58 1 75 l6 31 99 0 100 0 0 29 0 30 -121 0 c-66 1 -128 0 -137 -2z"/>
<path d="M5647 3000 c-9 -4 -12 -61 -12 -230 0 -124 3 -230 7 -235 7 -12 256
-14 274 -3 6 4 10 17 9 30 -2 22 -4 23 -111 23 l-109 0 0 75 0 75 70 2 c39 0
77 2 85 2 10 1 15 10 14 29 l-1 27 -84 0 -84 0 0 75 0 75 95 1 c123 2 119 1
115 22 -2 9 -4 22 -4 27 -1 10 -240 15 -264 5z"/>
<path d="M6119 2995 c-3 -30 -4 -442 -1 -456 2 -9 12 -15 25 -13 12 1 27 3 33
3 6 1 10 35 10 94 l-1 92 47 1 c25 1 50 -1 55 -5 4 -3 28 -45 53 -93 25 -49
47 -88 50 -89 58 -10 74 -1 55 31 -8 14 -18 34 -23 45 -5 11 -23 43 -40 72
l-30 51 30 28 c16 16 35 40 40 54 31 74 -16 173 -87 186 -62 11 -215 11 -216
-1z m208 -63 c20 -11 41 -54 37 -79 -1 -7 -2 -20 -3 -28 -2 -29 -58 -53 -119
-51 l-57 2 -1 80 c-1 43 3 82 8 85 14 9 112 3 135 -9z"/>
<path d="M6653 3001 c-12 -9 -10 -471 2 -472 6 0 18 -2 27 -4 10 -2 21 2 25 8
7 12 11 467 3 468 -29 5 -51 5 -57 0z"/>
<path d="M6950 3003 c-13 -3 -15 -36 -12 -235 3 -235 5 -250 41 -243 9 2 19 4
22 4 3 1 5 82 5 181 -1 99 1 180 4 180 3 0 17 -21 33 -48 40 -69 51 -86 58
-92 3 -3 38 -53 78 -112 69 -102 74 -108 107 -108 39 0 36 -8 34 130 -1 47 -1
92 -1 100 2 137 1 231 -3 238 -2 4 -17 7 -33 6 l-28 -1 0 -181 c0 -100 -2
-182 -5 -182 -3 0 -14 17 -25 38 -11 20 -22 39 -25 42 -3 3 -30 41 -60 85
-143 210 -140 208 -190 198z"/>
<path d="M7685 3003 c-53 -14 -120 -74 -147 -133 -40 -87 -24 -201 40 -271 76
-85 194 -105 288 -50 l34 20 0 -23 c0 -18 5 -23 23 -22 12 0 24 4 27 8 3 3 5
57 5 120 l0 113 -60 1 c-74 1 -84 -3 -80 -27 6 -31 13 -37 45 -33 16 2 30 0
31 -4 0 -4 2 -16 4 -26 6 -30 -12 -54 -55 -76 -118 -60 -250 22 -255 158 -3
84 27 137 98 174 47 23 117 22 171 -4 50 -23 51 -23 64 6 9 21 8 26 -11 39
-52 33 -154 47 -222 30z"/>
<path d="M8432 3000 c-4 -3 -7 -110 -7 -239 l0 -235 110 1 c85 1 121 6 155 21
69 30 117 85 127 147 16 94 3 169 -39 225 -22 31 -85 69 -126 77 -37 7 -211
10 -220 3z m235 -74 c52 -26 84 -77 88 -138 7 -125 -55 -197 -175 -204 -92 -4
-86 -17 -84 178 0 95 1 176 2 179 4 12 139 1 169 -15z"/>
<path d="M9032 3001 c-6 -4 -10 -97 -11 -237 0 -212 1 -232 17 -236 9 -2 25
-2 35 0 15 3 17 20 17 183 l0 180 83 -123 c71 -106 154 -226 163 -236 7 -9 55
-8 61 2 4 6 8 112 8 234 1 239 1 238 -50 237 -18 0 -19 -8 -19 -182 l0 -182
-72 107 c-40 59 -76 112 -81 117 -4 6 -24 34 -43 64 -19 30 -38 58 -41 63 -7
11 -54 17 -67 9z"/>
<path d="M9753 2999 c-15 -5 -24 -20 -29 -43 -3 -20 -9 -36 -13 -36 -4 0 -8
-6 -8 -12 0 -12 -50 -152 -103 -293 -30 -80 -30 -90 5 -90 27 0 31 5 54 68 28
74 18 69 139 69 35 0 65 -2 67 -4 2 -2 14 -33 27 -68 22 -61 25 -64 56 -65 17
0 32 2 32 6 0 7 -46 133 -60 164 -5 11 -14 38 -21 60 -6 22 -16 49 -20 60 -5
11 -21 55 -36 99 -30 83 -48 101 -90 85z m40 -115 c2 -11 7 -26 10 -34 33 -86
45 -130 37 -135 -5 -3 -11 -1 -15 5 -4 6 -11 7 -18 3 -13 -8 -85 -8 -93 0 -3
3 9 50 28 105 31 95 42 106 51 56z"/>
</g>
</svg>
