<?xml version="1.0" encoding="UTF-8"?>
<svg width="126px" height="64px" viewBox="0 0 126 64" version="1.1" xmlns="http://www.w3.org/2000/svg" xmlns:xlink="http://www.w3.org/1999/xlink">
    <title>1CE7DDDF-7F95-40C8-A424-F284000605C9</title>
    <g id="Page-1" stroke="none" stroke-width="1" fill="none" fill-rule="evenodd">
        <g id="Main-page" transform="translate(-117.000000, -86.000000)" fill-rule="nonzero">
            <g id="EED_logo_primary" transform="translate(117.000000, 86.000000)">
                <polygon id="Path" fill="#414042" points="0.198449612 57.3767442 3.99379845 57.3767442 3.99379845 58.6468217 1.68186047 58.6468217 1.68186047 59.7482171 3.52744186 59.7482171 3.52744186 61.0232558 1.68186047 61.0232558 1.68186047 62.1693023 4.11286822 62.1693023 4.11286822 63.4393798 0.198449612 63.4393798"></polygon>
                <path d="M6.36527132,57.3767442 L8.88062016,57.3767442 C9.98106797,57.452547 10.8350071,58.3673321 10.8350071,59.4703876 C10.8350071,60.5734431 9.98106797,61.4882282 8.88062016,61.564031 L7.84868217,61.564031 L7.84868217,63.4344186 L6.36031008,63.4344186 L6.36527132,57.3767442 Z M8.5779845,60.2939535 C8.79663972,60.3045893 9.00876327,60.2177641 9.15720833,60.0568688 C9.30565339,59.8959735 9.37515044,59.6775584 9.34697674,59.4604651 C9.37505684,59.2495486 9.30832518,59.0370217 9.16471967,58.880013 C9.02111416,58.7230043 8.81536931,58.6376236 8.6027907,58.6468217 L7.84868217,58.6468217 L7.84868217,60.2939535 L8.5779845,60.2939535 Z" id="Shape" fill="#414042"></path>
                <path d="M15.8164341,62.1643411 L13.9262016,62.1643411 L13.564031,63.4344186 L12.0409302,63.4344186 L14.099845,57.3767442 L15.6576744,57.3767442 L17.7165891,63.4344186 L16.1885271,63.4344186 L15.8164341,62.1643411 Z M14.8837209,58.7609302 C14.8837209,58.7609302 14.7497674,59.4207752 14.6356589,59.8027907 L14.2883721,60.9786047 L15.484031,60.9786047 L15.1466667,59.8027907 C15.0375194,59.4207752 14.8986047,58.7609302 14.8986047,58.7609302 L14.8837209,58.7609302 Z" id="Shape" fill="#414042"></path>
                <path d="M19.8896124,57.3767442 L21.5020155,57.3767442 L22.380155,59.9367442 C22.5190698,60.3237209 22.6877519,60.9289922 22.6877519,60.9289922 L22.6877519,60.9289922 C22.6877519,60.9289922 22.8564341,60.3187597 22.9953488,59.9367442 L23.8734884,57.3767442 L25.5007752,57.3767442 L25.9968992,63.4344186 L24.5085271,63.4344186 L24.32,60.7057364 C24.2902326,60.2493023 24.32,59.7134884 24.32,59.7134884 L24.32,59.7134884 C24.32,59.7134884 24.1165891,60.3485271 23.9826357,60.7057364 L23.3178295,62.4620155 L22.0576744,62.4620155 L21.4226357,60.7057364 C21.2886822,60.3237209 21.0852713,59.7134884 21.0852713,59.7134884 L21.0852713,59.7134884 C21.1039094,60.0439752 21.1039094,60.3752496 21.0852713,60.7057364 L20.8967442,63.4344186 L19.4083721,63.4344186 L19.8896124,57.3767442 Z" id="Path" fill="#414042"></path>
                <polygon id="Path" fill="#414042" points="31.875969 57.456124 35.3488372 57.456124 35.3488372 58.1854264 32.7144186 58.1854264 32.7144186 60.055814 34.8576744 60.055814 34.8576744 60.7851163 32.7144186 60.7851163 32.7144186 62.7051163 35.4927132 62.7051163 35.4927132 63.4344186 31.875969 63.4344186"></polygon>
                <path d="M37.9137984,57.456124 L38.7472868,57.456124 L41.4065116,61.3407752 C41.6248062,61.6632558 41.9026357,62.2089922 41.9026357,62.2089922 L41.9026357,62.2089922 C41.9026357,62.2089922 41.8431008,61.6731783 41.8431008,61.3407752 L41.8431008,57.456124 L42.6815504,57.456124 L42.6815504,63.4096124 L41.8827907,63.4096124 L39.1937984,59.5348837 C38.9705426,59.2024806 38.6976744,58.6617054 38.6976744,58.6617054 L38.6976744,58.6617054 C38.6976744,58.6617054 38.7572093,59.1975194 38.7572093,59.5348837 L38.7572093,63.4145736 L37.9137984,63.4145736 L37.9137984,57.456124 Z" id="Path" fill="#414042"></path>
                <path d="M48.1637209,57.351938 C48.9530229,57.3190234 49.7272863,57.5747596 50.3417054,58.0713178 L49.92,58.7013953 C49.4383623,58.324304 48.8448704,58.1183273 48.2331783,58.115969 C47.6205836,58.0940067 47.0270944,58.3312104 46.5983934,58.7693542 C46.1696923,59.207498 45.9454734,59.8060136 45.9807752,60.4179845 C45.939426,61.027079 46.1532852,61.6259287 46.5711105,62.0710444 C46.9889358,62.51616 47.5730758,62.7674312 48.1835659,62.7646512 C48.8232384,62.7479292 49.4307651,62.4806887 49.8753488,62.0204651 L49.8753488,61.1572093 L48.8831008,61.1572093 L48.8831008,60.427907 L50.6195349,60.427907 L50.6195349,63.4344186 L49.8803101,63.4344186 L49.8803101,63.0623256 C49.8803101,62.9333333 49.8803101,62.8093023 49.8803101,62.8093023 L49.8803101,62.8093023 C49.3878773,63.2870523 48.725706,63.5494221 48.0396899,63.5386047 C47.2351509,63.528578 46.4689364,63.1932914 45.9156279,62.6091397 C45.3623195,62.024988 45.0690481,61.2417296 45.1026357,60.4378295 C45.0822456,59.6176418 45.3973759,58.8246403 45.9751695,58.2421644 C46.5529631,57.6596885 47.3433954,57.3381682 48.1637209,57.351938 L48.1637209,57.351938 Z" id="Path" fill="#414042"></path>
                <polygon id="Path" fill="#414042" points="53.1348837 57.456124 53.9733333 57.456124 53.9733333 63.4096124 53.1348837 63.4096124"></polygon>
                <path d="M56.7863566,57.456124 L57.619845,57.456124 L60.2790698,61.3407752 C60.4973643,61.6632558 60.7751938,62.2089922 60.7751938,62.2089922 L60.7751938,62.2089922 C60.7751938,62.2089922 60.7156589,61.6731783 60.7156589,61.3407752 L60.7156589,57.456124 L61.5541085,57.456124 L61.5541085,63.4096124 L60.7305426,63.4096124 L58.0862016,59.5348837 C57.8629457,59.2024806 57.5900775,58.6617054 57.5900775,58.6617054 L57.5900775,58.6617054 C57.5900775,58.6617054 57.6496124,59.1975194 57.6496124,59.5348837 L57.6496124,63.4145736 L56.8111628,63.4145736 L56.7863566,57.456124 Z" id="Path" fill="#414042"></path>
                <polygon id="Path" fill="#414042" points="64.3869767 57.456124 67.859845 57.456124 67.859845 58.1854264 65.2254264 58.1854264 65.2254264 60.055814 67.3686822 60.055814 67.3686822 60.7851163 65.2254264 60.7851163 65.2254264 62.7051163 68.0037209 62.7051163 68.0037209 63.4344186 64.3869767 63.4344186"></polygon>
                <polygon id="Path" fill="#414042" points="70.4496124 57.456124 73.9224806 57.456124 73.9224806 58.1854264 71.288062 58.1854264 71.288062 60.055814 73.4263566 60.055814 73.4263566 60.7851163 71.2831008 60.7851163 71.2831008 62.7051163 74.0613953 62.7051163 74.0613953 63.4344186 70.4496124 63.4344186"></polygon>
                <path d="M76.4626357,57.456124 L78.2933333,57.456124 C78.6705239,57.430778 79.0491275,57.4762104 79.4096124,57.5900775 C80.0387216,57.8905076 80.4338923,58.5312058 80.4199946,59.2282305 C80.4060968,59.9252552 79.985701,60.5496921 79.3451163,60.8248062 L79.3451163,60.8248062 C79.4116367,60.9092489 79.4713586,60.9988318 79.5237209,61.0927132 L80.7937984,63.4145736 L79.8462016,63.4145736 L78.5810853,61.0331783 L77.3010853,61.0331783 L77.3010853,63.4145736 L76.4626357,63.4145736 L76.4626357,57.456124 Z M78.5066667,60.3237209 C78.7970722,60.3438882 79.0816844,60.2355122 79.285125,60.027296 C79.4885656,59.8190798 79.5903097,59.53203 79.5634109,59.2421705 C79.5871441,58.8652191 79.3948125,58.5074824 79.0672868,58.3193798 C78.8084972,58.2058447 78.525152,58.1597584 78.2437209,58.1854264 L77.2762791,58.1854264 L77.2762791,60.3237209 L78.5066667,60.3237209 Z" id="Shape" fill="#414042"></path>
                <polygon id="Path" fill="#414042" points="83.0809302 57.456124 83.9193798 57.456124 83.9193798 63.4096124 83.0809302 63.4096124"></polygon>
                <path d="M86.7274419,57.456124 L87.5609302,57.456124 L90.220155,61.3407752 C90.4384496,61.6632558 90.7162791,62.2089922 90.7162791,62.2089922 L90.7162791,62.2089922 C90.7162791,62.2089922 90.6567442,61.6731783 90.6567442,61.3407752 L90.6567442,57.456124 L91.4951938,57.456124 L91.4951938,63.4096124 L90.6765891,63.4096124 L88.0272868,59.5348837 C87.804031,59.2024806 87.5311628,58.6617054 87.5311628,58.6617054 L87.5311628,58.6617054 C87.5311628,58.6617054 87.5857364,59.1975194 87.5857364,59.5348837 L87.5857364,63.4145736 L86.7472868,63.4145736 L86.7274419,57.456124 Z" id="Path" fill="#414042"></path>
                <path d="M96.9773643,57.351938 C97.7666663,57.3190234 98.5409297,57.5747596 99.1553488,58.0713178 L98.7336434,58.7013953 C98.2520058,58.324304 97.6585138,58.1183273 97.0468217,58.115969 C96.434227,58.0940067 95.8407378,58.3312104 95.4120368,58.7693542 C94.9833358,59.207498 94.7591168,59.8060136 94.7944186,60.4179845 C94.7530694,61.027079 94.9669286,61.6259287 95.3847539,62.0710444 C95.8025792,62.51616 96.3867192,62.7674312 96.9972093,62.7646512 C97.6368818,62.7479292 98.2444085,62.4806887 98.6889922,62.0204651 L98.6889922,61.1572093 L97.6967442,61.1572093 L97.6967442,60.427907 L99.4331783,60.427907 L99.4331783,63.4344186 L98.7286822,63.4344186 L98.7286822,63.0623256 C98.7286822,62.9333333 98.7286822,62.8093023 98.7286822,62.8093023 L98.7286822,62.8093023 C98.2362494,63.2870523 97.5740781,63.5494221 96.888062,63.5386047 C96.083523,63.528578 95.3173085,63.1932914 94.764,62.6091397 C94.2106915,62.024988 93.9174202,61.2417296 93.9510078,60.4378295 C93.9308727,59.6237338 94.241295,58.8361875 94.8114878,58.2547777 C95.3816807,57.673368 96.1630309,57.3476643 96.9773643,57.351938 L96.9773643,57.351938 Z" id="Path" fill="#414042"></path>
                <path d="M105.312248,57.456124 L107.296744,57.456124 C109.127442,57.456124 110.328062,58.5475969 110.328062,60.4328682 C110.328062,62.3181395 109.127442,63.4096124 107.296744,63.4096124 L105.312248,63.4096124 L105.312248,57.456124 Z M107.237209,62.7051163 C108.581705,62.7051163 109.464806,61.9113178 109.464806,60.4378295 C109.524651,59.8284906 109.310198,59.2241275 108.879662,58.7887962 C108.449125,58.353465 107.847174,58.1323327 107.237209,58.1854264 L106.170543,58.1854264 L106.170543,62.7051163 L107.237209,62.7051163 Z" id="Shape" fill="#414042"></path>
                <path d="M112.768992,57.456124 L113.612403,57.456124 L116.271628,61.3407752 C116.489922,61.6632558 116.767752,62.2089922 116.767752,62.2089922 L116.767752,62.2089922 C116.767752,62.2089922 116.708217,61.6731783 116.708217,61.3407752 L116.708217,57.456124 L117.546667,57.456124 L117.546667,63.4096124 L116.728062,63.4096124 L114.063876,59.5348837 C113.84062,59.2024806 113.567752,58.6617054 113.567752,58.6617054 L113.567752,58.6617054 C113.567752,58.6617054 113.627287,59.1975194 113.627287,59.5348837 L113.627287,63.4145736 L112.768992,63.4145736 L112.768992,57.456124 Z" id="Path" fill="#414042"></path>
                <path d="M123.331473,61.7178295 L121.054264,61.7178295 L120.463876,63.4344186 L119.60062,63.4344186 L121.748837,57.4809302 L122.631938,57.4809302 L124.785116,63.4344186 L123.931783,63.4344186 L123.331473,61.7178295 Z M122.205271,58.2747287 C122.205271,58.2747287 122.066357,58.8204651 121.967132,59.1231008 L121.297364,61.0232558 L123.108217,61.0232558 L122.448372,59.128062 C122.349147,58.8254264 122.220155,58.2796899 122.220155,58.2796899 L122.205271,58.2747287 Z" id="Shape" fill="#414042"></path>
                <path d="M61.1026357,9.9820155 L61.1026357,33.4437209 C61.068925,34.0618768 61.3795438,34.6480632 61.9099686,34.967285 C62.4403934,35.2865069 63.1037926,35.2865069 63.6342174,34.967285 C64.1646423,34.6480632 64.475261,34.0618768 64.4415504,33.4437209 L64.4415504,9.9820155 C64.475261,9.36385963 64.1646423,8.77767328 63.6342174,8.45845143 C63.1037926,8.13922958 62.4403934,8.13922958 61.9099686,8.45845143 C61.3795438,8.77767328 61.068925,9.36385963 61.1026357,9.9820155 L61.1026357,9.9820155 Z" id="Path" fill="#414042"></path>
                <path d="M67.7804651,12.4874419 L67.7804651,30.9382946 C67.7804651,31.8616804 68.5290172,32.6102326 69.4524031,32.6102326 C70.375789,32.6102326 71.1243411,31.8616804 71.1243411,30.9382946 L71.1243411,12.4874419 C71.1243411,11.564056 70.375789,10.8155039 69.4524031,10.8155039 C68.5290172,10.8155039 67.7804651,11.564056 67.7804651,12.4874419 Z" id="Path" fill="#FEBC11"></path>
                <path d="M74.4632558,19.1702326 L74.4632558,24.2604651 C74.5116109,25.1471589 75.2447018,25.8413606 76.1327132,25.8413606 C77.0207245,25.8413606 77.7538154,25.1471589 77.8021705,24.2604651 L77.8021705,19.1702326 C77.8358812,18.5520767 77.5252624,17.9658903 76.9948376,17.6466685 C76.4644128,17.3274466 75.8010136,17.3274466 75.2705888,17.6466685 C74.7401639,17.9658903 74.4295452,18.5520767 74.4632558,19.1702326 L74.4632558,19.1702326 Z" id="Path" fill="#414042"></path>
                <path d="M54.419845,12.4874419 L54.419845,30.9382946 C54.3861343,31.5564504 54.6967531,32.1426368 55.2271779,32.4618586 C55.7576027,32.7810805 56.4210019,32.7810805 56.9514267,32.4618586 C57.4818516,32.1426368 57.7924703,31.5564504 57.7587597,30.9382946 L57.7587597,12.4874419 C57.7924703,11.869286 57.4818516,11.2830996 56.9514267,10.9638778 C56.4210019,10.6446559 55.7576027,10.6446559 55.2271779,10.9638778 C54.6967531,11.2830996 54.3861343,11.869286 54.419845,12.4874419 L54.419845,12.4874419 Z" id="Path" fill="#FEBC11"></path>
                <path d="M51.4579845,21.263876 L51.4579845,22.1618605 C51.4579845,23.0852463 50.7094324,23.8337984 49.7860465,23.8337984 C48.8626607,23.8337984 48.1141085,23.0852463 48.1141085,22.1618605 L48.1141085,21.263876 C48.1141085,20.3404901 48.8626607,19.591938 49.7860465,19.591938 C50.7094324,19.591938 51.4579845,20.3404901 51.4579845,21.263876 L51.4579845,21.263876 Z" id="Path" fill="#414042"></path>
                <path d="M109.936124,9.9820155 L109.936124,33.4437209 C109.969835,34.0618768 109.659216,34.6480632 109.128791,34.967285 C108.598366,35.2865069 107.934967,35.2865069 107.404542,34.967285 C106.874117,34.6480632 106.563499,34.0618768 106.597209,33.4437209 L106.597209,9.9820155 C106.563499,9.36385963 106.874117,8.77767328 107.404542,8.45845143 C107.934967,8.13922958 108.598366,8.13922958 109.128791,8.45845143 C109.659216,8.77767328 109.969835,9.36385963 109.936124,9.9820155 Z" id="Path" fill="#414042"></path>
                <path d="M103.258295,12.4874419 L103.258295,30.9382946 C103.258295,31.8616804 102.509742,32.6102326 101.586357,32.6102326 C100.662971,32.6102326 99.9144186,31.8616804 99.9144186,30.9382946 L99.9144186,12.4874419 C99.9144186,11.564056 100.662971,10.8155039 101.586357,10.8155039 C102.509742,10.8155039 103.258295,11.564056 103.258295,12.4874419 Z" id="Path" fill="#FEBC11"></path>
                <path d="M96.5755039,19.1702326 L96.5755039,24.2604651 C96.5271488,25.1471589 95.7940579,25.8413606 94.9060465,25.8413606 C94.0180352,25.8413606 93.2849443,25.1471589 93.2365891,24.2604651 L93.2365891,19.1702326 C93.2028785,18.5520767 93.5134973,17.9658903 94.0439221,17.6466685 C94.5743469,17.3274466 95.2377461,17.3274466 95.7681709,17.6466685 C96.2985958,17.9658903 96.6092145,18.5520767 96.5755039,19.1702326 Z" id="Path" fill="#414042"></path>
                <path d="M116.618915,12.4874419 L116.618915,30.9382946 C116.652625,31.5564504 116.342007,32.1426368 115.811582,32.4618586 C115.281157,32.7810805 114.617758,32.7810805 114.087333,32.4618586 C113.556908,32.1426368 113.246289,31.5564504 113.28,30.9382946 L113.28,12.4874419 C113.246289,11.869286 113.556908,11.2830996 114.087333,10.9638778 C114.617758,10.6446559 115.281157,10.6446559 115.811582,10.9638778 C116.342007,11.2830996 116.652625,11.869286 116.618915,12.4874419 Z" id="Path" fill="#FEBC11"></path>
                <path d="M119.565891,21.263876 L119.565891,22.1618605 C119.532181,22.7800163 119.8428,23.3662027 120.373224,23.6854245 C120.903649,24.0046464 121.567048,24.0046464 122.097473,23.6854245 C122.627898,23.3662027 122.938517,22.7800163 122.904806,22.1618605 L122.904806,21.263876 C122.938517,20.6457201 122.627898,20.0595337 122.097473,19.7403119 C121.567048,19.42109 120.903649,19.42109 120.373224,19.7403119 C119.8428,20.0595337 119.532181,20.6457201 119.565891,21.263876 L119.565891,21.263876 Z" id="Path" fill="#414042"></path>
                <path d="M122.597209,31.3302326 C118.816744,35.8300775 113.830698,40.0868217 108.482481,40.0868217 C99.5968992,40.0868217 91.6986047,28.3336434 88.7020155,23.2533333 L88.7020155,23.2533333 L85.4623256,17.4982946 C81.815814,11.539845 73.4660465,0 63.3699225,0 C56.8607752,0 51.1007752,4.79255814 46.8192248,9.79348837 C46.4328241,10.2490158 46.3187961,10.8760829 46.5200941,11.4384795 C46.7213921,12.0008761 47.2074341,12.4131608 47.7951328,12.5200299 C48.3828316,12.626899 48.9829016,12.4121166 49.3693023,11.9565891 C53.1348837,7.49147287 58.0762791,3.33891473 63.3699225,3.33891473 C73.3469767,3.33891473 82.0787597,18.1730233 84.0235659,21.6955039 C82.0787597,25.2378295 73.3469767,40.052093 63.3699225,40.052093 C58.096124,40.052093 53.1696124,35.9094574 49.4089922,31.4790698 C49.339233,31.3984603 49.2628982,31.3237849 49.1807752,31.255814 C46.9210504,28.4172114 44.8763031,25.413937 43.0635659,22.2710078 C42.0713178,20.6189147 41.0344186,18.9072868 39.8883721,17.2204651 C36.1475969,11.3314729 28.5767442,1.48837209 19.8449612,1.48837209 L1.98449612,1.48837209 C1.14717263,1.5686036 0.507935388,2.27201973 0.507935388,3.11317829 C0.507935388,3.95433686 1.14717263,4.65775299 1.98449612,4.7379845 L19.8449612,4.7379845 C27.2868217,4.7379845 34.4111628,14.7051163 37.1299225,18.9916279 L37.1596899,19.0362791 C38.2610853,20.6536434 39.2285271,22.256124 40.2505426,23.9578295 C42.1406419,27.243904 44.2750244,30.3832871 46.6356589,33.3494574 C46.6926642,33.4675933 46.7625454,33.5790704 46.844031,33.6818605 C51.1057364,38.6431008 56.8706977,43.4257364 63.3550388,43.4257364 C73.9125581,43.4257364 82.56,30.8093023 85.9088372,25.1386047 C89.3023256,30.8093023 97.92,43.4257364 108.482481,43.4257364 C115.051163,43.4257364 120.885581,38.543876 125.152248,33.5032558 C125.703591,32.7945092 125.596639,31.7768195 124.91,31.1981761 C124.223361,30.6195328 123.202267,30.686597 122.597209,31.3500775 L122.597209,31.3302326 Z" id="Path" fill="#414042"></path>
                <path d="M108.482481,3.33891473 C113.810853,3.33891473 118.786977,7.57085271 122.557519,12.0508527 C123.153473,12.7564072 124.208554,12.8452561 124.914109,12.2493023 C125.619663,11.6533485 125.708512,10.5982676 125.112558,9.89271318 C120.84093,4.85705426 115.031318,0 108.482481,0 C100.127752,0 92.9736434,7.89333333 88.6871318,14.0006202 L90.5724031,17.1906977 C94.3379845,11.5299225 101.065426,3.33891473 108.482481,3.33891473 Z" id="Path" fill="#414042"></path>
                <path d="M34.3962791,30.6455814 C34.0717208,30.3590665 33.6463704,30.2136926 33.2143419,30.2416255 C32.7823135,30.2695584 32.3792245,30.4684952 32.0942636,30.7944186 C29.1175194,34.1829457 24.5779845,38.2015504 19.8449612,38.2015504 L3.61178295,38.2015504 C3.51882017,38.2028786 3.42920649,38.1668767 3.36300059,38.1016033 C3.29679469,38.0363299 3.2595254,37.9472358 3.25953488,37.8542636 L3.25953488,15.2409302 C3.21178047,14.3757313 2.49628325,13.6986367 1.62976744,13.6986367 C0.76325163,13.6986367 0.047754409,14.3757313 0,15.2409302 L0,37.8741085 C0.00273283396,39.8677081 1.61818338,41.4831586 3.61178295,41.4858915 L19.8449612,41.4858915 C24.6077519,41.4858915 29.5491473,38.6133333 34.5252713,32.9426357 C35.1237028,32.2726096 35.0659629,31.2443958 34.3962791,30.6455814 L34.3962791,30.6455814 Z" id="Path" fill="#414042"></path>
                <path d="M17.6620155,28.5271318 C21.1523643,28.3352849 23.8842614,25.4491057 23.8842614,21.9534884 C23.8842614,18.4578711 21.1523643,15.5716918 17.6620155,15.379845 L13.8468217,15.379845 C12.9472941,15.3825791 12.2195273,16.1125612 12.2195273,17.012093 L12.2195273,26.9345736 C12.2182165,27.3670159 12.38908,27.7821984 12.6943985,28.0884477 C12.999717,28.394697 13.4143774,28.5668217 13.8468217,28.5668217 L17.6620155,28.5271318 Z M15.4790698,18.6046512 L17.6620155,18.6046512 C19.4950871,18.6046512 20.9810853,20.0906493 20.9810853,21.9237209 C20.9810853,23.7567925 19.4950871,25.2427907 17.6620155,25.2427907 L15.4790698,25.2427907 L15.4790698,18.6046512 Z" id="Shape" fill="#414042"></path>
            </g>
        </g>
    </g>
</svg>
