<?xml version="1.0" encoding="UTF-8"?>
<svg width="271px" height="189px" viewBox="0 0 271 189" version="1.1" xmlns="http://www.w3.org/2000/svg" xmlns:xlink="http://www.w3.org/1999/xlink">
    <title>E4D60FBD-7876-45D5-986D-B461F5777F90</title>
    <g id="Page-1" stroke="none" stroke-width="1" fill="none" fill-rule="evenodd">
        <g id="Main-page" transform="translate(-1169.000000, 0.000000)" fill-rule="nonzero">
            <g id="details" transform="translate(1169.514165, 0.390625)">
                <ellipse id="Oval" fill="#EC615B" cx="259.342351" cy="59.071875" rx="10.3613806" ry="10.36875"></ellipse>
                <ellipse id="Oval" fill="#414042" cx="224.782556" cy="76.003125" rx="3.47565299" ry="3.478125"></ellipse>
                <ellipse id="Oval" fill="#FEBC11" cx="248.915392" cy="48.178125" rx="10.3613806" ry="10.36875"></ellipse>
                <path d="M166.084262,46.590625 C166.608889,44.425 167.854878,42.71875 169.953385,41.8 C171.789579,41.0125 173.297881,41.5375 175.199654,41.471875 C177.298161,41.340625 178.872042,40.290625 180.118031,38.715625 C182.019803,36.353125 183.265792,33.925 185.954504,32.35 C189.036687,30.578125 192.577919,30.25 195.987993,31.3 C197.233982,31.69375 197.693031,29.790625 196.51262,29.396875 C190.217098,27.49375 183.987154,29.921875 180.183609,35.2375 C178.675307,37.3375 177.560475,39.4375 174.675027,39.503125 C172.904411,39.56875 171.396109,39.175 169.691072,39.765625 C166.805624,40.75 164.838273,43.178125 164.18249,46.065625 C163.854598,47.3125 165.75637,47.8375 166.084262,46.590625 L166.084262,46.590625 Z" id="Path" fill="#EC615B"></path>
                <path d="M166.504622,59.1375 C163.684752,51.65625 177.193894,52.05 181.259752,50.60625 C186.309286,48.834375 190.637457,45.684375 194.900051,42.534375 C195.883726,41.8125 194.900051,40.10625 193.916375,40.828125 C191.030927,42.99375 188.079901,45.09375 184.93214,46.8 C180.997439,48.9 177.259472,49.55625 172.996879,50.2125 C168.471972,50.934375 162.56992,54.084375 164.668427,59.596875 C165.061898,60.778125 166.96367,60.31875 166.504622,59.1375 L166.504622,59.1375 Z" id="Path" fill="#EC615B"></path>
                <path d="M113.857334,140.259947 C119.174355,133.955142 127.379635,130.540039 135.650557,131.59084 C140.376798,132.181915 144.709186,134.349192 149.041573,136.253769 C152.651896,137.82997 156.327862,139.143471 160.069469,140.194272 C176.151818,144.660176 193.415726,144.003425 209.104221,138.486721 C210.285781,138.09267 209.760643,136.188094 208.579083,136.582144 C190.986963,142.689924 171.556861,142.689924 154.030383,136.122418 C146.415884,133.298391 139.326522,128.766812 130.858673,129.423563 C123.703669,129.948963 117.073803,133.364066 112.413205,138.815096 C111.625498,139.865897 113.069627,141.245073 113.857334,140.259947 L113.857334,140.259947 Z" id="Path" fill="#414042"></path>
                <path d="M1.20993365,134.874592 C13.156821,131.393814 25.4319195,129.686263 37.9039447,129.751938 C39.1511472,129.751938 39.1511472,127.781686 37.9039447,127.781686 C25.300635,127.716011 12.8286098,129.489238 0.684795747,132.970016 C-0.496764537,133.364066 -0.0372688709,135.268643 1.20993365,134.874592 L1.20993365,134.874592 Z" id="Path" fill="#414042"></path>
                <ellipse id="Oval" fill="#EC615B" cx="150.002832" cy="99.134375" rx="4.52490672" ry="4.528125"></ellipse>
                <ellipse id="Oval" fill="#414042" cx="107.973075" cy="16.471875" rx="7.73824627" ry="7.74375"></ellipse>
                <ellipse id="Oval" fill="#FEBC11" cx="167.971302" cy="104.58125" rx="5.1806903" ry="5.184375"></ellipse>
                <ellipse id="Oval" fill="#FEBC11" cx="133.679791" cy="4.59375" rx="4.59048507" ry="4.59375"></ellipse>
                <path d="M187.121558,174.603125 C185.350942,178.475 183.580327,182.28125 181.809711,186.153125 C181.285084,187.26875 182.990121,188.31875 183.514748,187.1375 C185.285364,183.265625 187.05598,179.459375 188.826595,175.5875 C189.351222,174.471875 187.711763,173.4875 187.121558,174.603125 L187.121558,174.603125 Z" id="Path" fill="#FEBC11"></path>
                <path d="M176.113721,175.128125 C177.818758,179.196875 179.523796,183.265625 181.228833,187.334375 C181.687882,188.515625 183.589654,187.990625 183.130605,186.809375 C181.425568,182.740625 179.720531,178.671875 178.015493,174.603125 C177.556445,173.421875 175.654673,173.946875 176.113721,175.128125 L176.113721,175.128125 Z" id="Path" fill="#FEBC11"></path>
                <path d="M176.315779,166.925 C178.086395,170.403125 179.791432,173.946875 181.562048,177.425 C181.88994,178.015625 182.67688,178.015625 183.135929,177.621875 C184.513074,176.50625 185.168858,174.603125 185.89022,173.09375 C186.939473,170.99375 187.988727,168.89375 189.037981,166.79375 C189.628186,165.678125 187.923149,164.69375 187.332944,165.809375 C186.414847,167.646875 185.431171,169.484375 184.513074,171.321875 C183.726134,172.896875 183.004772,175.0625 181.627626,176.178125 C182.152253,176.24375 182.67688,176.309375 183.201507,176.375 C181.430891,172.896875 179.725854,169.353125 177.955238,165.875 C177.430611,164.825 175.725574,165.809375 176.315779,166.925 L176.315779,166.925 Z" id="Path" fill="#FEBC11" transform="translate(182.676782, 171.607457) scale(1, -1) translate(-182.676782, -171.607457) "></path>
            </g>
        </g>
    </g>
</svg>
