<?xml version="1.0" encoding="UTF-8"?>
<svg width="16px" height="16px" viewBox="0 0 16 16" version="1.1" xmlns="http://www.w3.org/2000/svg" xmlns:xlink="http://www.w3.org/1999/xlink">
    <!-- Generator: sketchtool 64 (101010) - https://sketch.com -->
    <title>C2C82649-66D5-43D3-B99B-B4EAD3F19600</title>
    <desc>Created with sketchtool.</desc>
    <defs>
        <path d="M0.195262146,0.195262146 C0.455611674,-0.065087382 0.87772166,-0.065087382 1.13807119,0.195262146 L1.13807119,0.195262146 L15.8047379,14.8619288 C16.0650874,15.1222783 16.0650874,15.5443883 15.8047379,15.8047379 C15.5443883,16.0650874 15.1222783,16.0650874 14.8619288,15.8047379 L14.8619288,15.8047379 L11.8842502,12.8267274 C10.730817,13.5689913 9.38858307,13.9773754 7.99999994,14 C5.74679837,14 3.77420516,12.9116727 2.0969752,11.1226274 C1.52075087,10.5079881 1.02033366,9.85170327 0.596223748,9.19501695 C0.339978173,8.79824961 0.164093938,8.48556653 0.0703818727,8.2981424 C-0.0264925325,8.10439359 -0.0231930127,7.87565645 0.0792295535,7.68478248 C0.833633353,6.27888095 1.83996604,5.02623163 3.04595516,3.98819785 L0.195262146,1.13807119 C-0.065087382,0.87772166 -0.065087382,0.455611674 0.195262146,0.195262146 Z M3.9914916,4.93412831 C2.96692261,5.80085617 2.09957614,6.83875075 1.42837085,8.00212491 C1.51200077,8.14663073 1.60804888,8.30407184 1.71627625,8.47164971 C2.099458,9.06496339 2.55216579,9.65867853 3.06969147,10.2107059 C4.51746151,11.754994 6.1698683,12.6666667 7.98910179,12.6667558 C9.02108085,12.6498834 10.0270915,12.3693043 10.913641,11.8574419 L9.3657077,10.3098829 C8.75567243,10.6919475 8.00676492,10.8166106 7.29026902,10.6336301 C6.34543928,10.3923372 5.60766282,9.65456072 5.36636988,8.70973098 C5.1833894,7.99323508 5.30805246,7.24432757 5.69011715,6.6342923 Z M8,1.99998143 C10.2532016,1.99998143 12.2257948,3.08832729 13.9030248,4.87737258 C14.4792491,5.49201186 14.9796663,6.14829673 15.4037763,6.80498305 C15.6600218,7.20175039 15.8359061,7.51443347 15.9296181,7.7018576 C16.0263237,7.89526868 16.0232136,8.12356981 15.9212753,8.31427482 C15.4947204,9.11226918 14.986017,9.86354883 14.4034375,10.5558964 C14.1663804,10.8376192 13.7458263,10.8738279 13.4641036,10.6367708 C13.1823808,10.3997138 13.1461721,9.97915963 13.3832292,9.69743689 C13.8292748,9.16734846 14.2270648,8.59876575 14.5719891,7.9984971 C14.4882749,7.85382111 14.3921064,7.69616863 14.2837237,7.52835029 C13.900542,6.93503661 13.4478342,6.34132147 12.9303085,5.78929409 C11.4825385,4.24500604 9.8301317,3.33333333 7.99843337,3.33333149 C7.57881936,3.33234542 7.16051366,3.38015179 6.75194215,3.47578763 C6.39344254,3.55970296 6.03479436,3.33710842 5.95087903,2.97860881 C5.8669637,2.6201092 6.08955824,2.26146103 6.44805785,2.1775457 C6.95726274,2.05835423 7.4785994,1.9987729 8,1.99998143 Z M6.68494342,7.62901925 C6.60565741,7.86739618 6.5938353,8.12761847 6.65824056,8.37980987 C6.77888703,8.85222474 7.14777526,9.22111297 7.62019013,9.34175944 C7.87238153,9.4061647 8.13260382,9.39434259 8.37098075,9.31505658 Z" id="path-1"></path>
    </defs>
    <g id="Page-1" stroke="none" stroke-width="1" fill="none" fill-rule="evenodd">
        <g id="Web_0_white" transform="translate(-978.000000, -523.000000)">
            <g id="text-field" transform="translate(704.000000, 507.000000)">
                <g id="eye-off" transform="translate(274.000000, 16.000000)">
                    <rect id="area" x="0" y="0" width="16" height="16"></rect>
                    <mask id="mask-2" fill="white">
                        <use xlink:href="#path-1"></use>
                    </mask>
                    <use id="Combined-Shape" fill-opacity="0.5" fill="#0A1010" xlink:href="#path-1"></use>
                </g>
            </g>
        </g>
    </g>
</svg>