<?xml version="1.0" encoding="UTF-8"?>
<svg width="24px" height="24px" viewBox="0 0 24 24" version="1.1" xmlns="http://www.w3.org/2000/svg" xmlns:xlink="http://www.w3.org/1999/xlink">
    <title>C0BA161D-E0D5-4206-96E7-F58279FF6ADD</title>
    <g id="Page-1" stroke="none" stroke-width="1" fill="none" fill-rule="evenodd">
        <g id="Main-page" transform="translate(-959.000000, -567.000000)" fill-rule="nonzero">
            <g id="btn" transform="translate(850.000000, 551.000000)">
                <g id="google" transform="translate(109.000000, 16.000000)">
                    <path d="M19.7203125,21.1265625 C17.6390625,22.884375 14.9391094,24 12,24 C7.6265625,24 3.78745313,21.590625 1.70625,18.075 L2.48540625,14.4833437 L5.9390625,13.8421875 C6.740625,16.4296406 9.15932813,18.328125 12,18.328125 C13.3780781,18.328125 14.6578125,17.8921875 15.7125,17.11875 L19.03125,17.625 L19.7203125,21.1265625 Z" id="Path" fill="#59C36A"></path>
                    <path d="M19.7203125,21.1265625 L19.03125,17.625 L15.7125,17.11875 C14.6578125,17.8921875 13.3780781,18.328125 12,18.328125 L12,24 C14.9391094,24 17.6390625,22.884375 19.7203125,21.1265625 Z" id="Path" fill="#00A66C"></path>
                    <g id="Connected_Home_1_" transform="translate(0.000000, 5.906250)" fill="#FFDA2D">
                        <path d="M5.671875,6.09375 C5.671875,6.74057812 5.7703125,7.35932813 5.9390625,7.9359375 L1.70625,12.16875 C0.6515625,10.396875 3.33066907e-16,8.31557812 3.33066907e-16,6.09375 C3.33066907e-16,3.87182812 0.6515625,1.790625 1.70625,0.01875 L5.10342187,0.603421875 L5.9390625,4.2515625 C5.7703125,4.82807813 5.671875,5.44682813 5.671875,6.09375 Z" id="Path"></path>
                    </g>
                    <path d="M24,12 C24,15.6562031 22.3078594,18.9328125 19.7203125,21.1265625 L15.7125,17.11875 C16.5280781,16.5280781 17.2171875,15.7405781 17.6671875,14.8125 L12,14.8125 C11.6062031,14.8125 11.296875,14.5030781 11.296875,14.109375 L11.296875,9.890625 C11.296875,9.49682813 11.6062031,9.1875 12,9.1875 L23.1,9.1875 C23.4375,9.1875 23.7328125,9.42651563 23.7890625,9.76401563 C23.9296875,10.4953125 24,11.2546406 24,12 Z" id="Path" fill="#4086F4"></path>
                    <path d="M17.6672344,14.8125 C17.2172344,15.7405781 16.5280781,16.5280781 15.7125469,17.11875 L19.7203125,21.1265625 C22.3078594,18.9328125 24,15.65625 24,12 C24,11.2546406 23.9296875,10.4953125 23.7890156,9.76401563 C23.7328125,9.42651563 23.4374531,9.1875 23.0999531,9.1875 L12,9.1875 L12,14.8125 L17.6672344,14.8125 Z" id="Path" fill="#4175DF"></path>
                    <path d="M19.9171875,3.35151563 C19.93125,3.54839062 19.846875,3.73125 19.7203125,3.87182812 L16.7109375,6.86714063 C16.4719219,7.12026563 16.0781719,7.14839063 15.7969219,6.93745313 C14.6858906,6.1078125 13.3780781,5.671875 12,5.671875 C9.15932813,5.671875 6.740625,7.57026563 5.9390625,10.1578125 L1.70625,5.925 C3.78745312,2.409375 7.6265625,-6.66133815e-16 12,-6.66133815e-16 C14.7984375,-6.66133815e-16 17.5265625,1.03125 19.6640625,2.83120313 C19.81875,2.9578125 19.903125,3.15464062 19.9171875,3.35151562 L19.9171875,3.35151563 Z" id="Path" fill="#FF641A"></path>
                    <path d="M15.796875,6.93745313 C16.078125,7.1484375 16.4718281,7.12026563 16.7108906,6.86714062 L19.7202656,3.87182812 C19.846875,3.73125 19.93125,3.5484375 19.9171406,3.35151562 C19.9030312,3.15459375 19.8187031,2.9578125 19.6640156,2.83120313 C17.5265625,1.03125 14.7984375,0 12,0 L12,5.671875 C13.3780781,5.671875 14.6858906,6.1078125 15.796875,6.93745313 Z" id="Path" fill="#F03800"></path>
                </g>
            </g>
        </g>
    </g>
</svg>
