<?xml version="1.0" encoding="UTF-8"?>
<svg width="969px" height="826px" viewBox="0 0 969 826" version="1.1" xmlns="http://www.w3.org/2000/svg" xmlns:xlink="http://www.w3.org/1999/xlink">
    <title>9E2862D0-2830-4406-8B0D-27C141A31258</title>
    <g id="Page-1" stroke="none" stroke-width="1" fill="none" fill-rule="evenodd">
        <g id="Main-page" transform="translate(221.000000, -266.000000)" fill-rule="nonzero">
            <g id="illustration" transform="translate(263.500000, 679.000000) scale(-1, 1) rotate(15.000000) translate(-263.500000, -679.000000) translate(-153.000000, 364.000000)">
                <g id="background" transform="translate(0.000000, 3.000000)">
                    <path d="M26.9789598,169.835698 C38.6632782,160.312815 54.4830575,158.933638 68.9243499,161.560641 C84.3502758,164.318993 98.3977147,171.740275 112.64208,177.979405 C127.345942,184.481236 142.312372,189.144165 158.460362,189.932265 C174.542711,190.786041 190.625059,188.487414 206.247912,184.546911 C238.872104,176.337529 268.804965,160.575515 300.116312,148.68833 C315.804807,142.711899 332.01844,137.52357 348.691568,135.159268 C357.750197,133.845767 366.874468,133.517391 375.998739,134.502517 C384.663515,135.421968 393.131363,137.457895 401.599212,139.559497 C420.30725,144.222426 438.949645,148.294279 458.117179,150.592906 C477.875493,152.957208 497.830733,153.745309 517.720331,153.088558 C518.967533,153.022883 518.967533,151.052632 517.720331,151.118307 C481.6171,152.431808 445.513869,148.556979 410.460914,139.822197 C393.722143,135.618993 377.114657,131.284439 359.719464,132.138215 C342.849409,132.991991 326.176281,137.457895 310.290859,142.908924 C278.454374,153.876659 248.521513,169.967048 216.225532,179.752632 C199.814972,184.678261 182.813633,188.093364 165.615366,188.159039 C148.154531,188.224714 131.743972,184.15286 115.792908,177.191304 C100.038771,170.361098 84.6128448,161.889016 67.4802206,159.262014 C52.9076438,157.029062 37.3504334,158.802288 25.6004728,168.390847 C24.6158392,169.244622 25.9943262,170.689474 26.9789598,169.835698 L26.9789598,169.835698 Z" id="Path" fill="#E8E8E8"></path>
                    <path d="M380.528054,109.808696 C426.018125,129.445538 477.678566,126.161785 524.218913,111.910297 C549.425532,104.160641 574.500867,93.7839817 601.348542,93.8496568 C628.393144,93.9153318 654.059259,103.37254 680.513081,107.575744 C704.53814,111.384897 730.991962,110.925172 751.603625,96.476659 C752.653901,95.7542334 751.669267,94.0466819 750.618991,94.7691076 C731.582742,108.101144 707.426399,109.283295 685.108038,106.262243 C659.835776,102.84714 635.548148,94.0466819 610.013318,92.2077803 C584.478487,90.3688787 560.387786,98.0528604 536.428369,105.933867 C512.534594,113.749199 488.378251,119.856979 463.237273,121.301831 C435.404965,122.943707 407.244444,119.200229 381.578329,108.101144 C380.396769,107.575744 379.412136,109.283295 380.528054,109.808696 L380.528054,109.808696 Z" id="Path" fill="#E8E8E8"></path>
                    <path d="M175.921198,298.755835 C201.456028,271.763387 239.003388,260.729977 275.303546,260.401602 C296.374704,260.204577 317.380221,263.225629 337.926241,267.625858 C357.487628,271.763387 376.458235,277.148741 396.676044,274.456064 C417.812845,271.632037 437.571158,262.568879 456.476123,253.045995 C457.592041,252.45492 456.607407,250.747368 455.491489,251.338444 C437.505516,260.401602 418.797478,269.005034 398.776596,272.157437 C388.536407,273.733638 378.230575,273.602288 367.990386,271.960412 C357.618913,270.318535 347.510008,267.560183 337.204177,265.392906 C299.656816,257.511899 259.680693,254.162471 222.789756,266.969108 C204.606856,273.273913 187.802443,283.322197 174.542711,297.310984 C173.689362,298.29611 175.067849,299.675286 175.921198,298.755835 L175.921198,298.755835 Z" id="Path" fill="#E8E8E8"></path>
                    <path d="M480.172971,318.392677 C490.872656,322.136156 501.834909,318.655378 511.615603,313.992449 C522.577857,308.738444 532.883688,302.236613 544.108511,297.573684 C555.333333,292.910755 567.411505,289.758352 579.620961,291.268879 C590.780142,292.648055 601.085973,297.639359 610.866667,302.959039 C620.122222,308.016018 629.246493,313.532723 639.092829,317.407551 C650.055083,321.67643 661.870686,323.712357 673.620646,323.449657 C697.711348,322.924256 718.191726,310.905721 740.181875,302.762014 C760.727896,295.143707 788.100709,291.728604 804.576911,309.59222 C805.43026,310.51167 806.808747,309.132494 805.955398,308.213043 C793.023877,294.224256 772.412214,292.648055 754.68881,296.391533 C731.582742,301.251487 711.627502,315.371625 688.39015,319.903204 C675.983767,322.333181 662.986604,322.004805 650.711505,319.049428 C639.289756,316.291076 629.049567,310.905721 618.809377,305.191991 C609.553822,300.003661 600.166982,294.618307 589.992435,291.531579 C579.424035,288.313501 568.396139,288.247826 557.696454,290.874828 C544.633649,294.092906 532.621119,300.463387 520.871158,306.899542 C508.727344,313.467048 494.679905,321.479405 480.566824,316.553776 C479.516548,316.09405 478.991411,317.998627 480.172971,318.392677 L480.172971,318.392677 Z" id="Path" fill="#E8E8E8"></path>
                    <path d="M653.008983,350.048055 C680.18487,351.689931 702.568873,333.23524 728.234988,327.65286 C735.061781,326.142334 742.282427,325.485584 749.240504,326.667735 C755.476517,327.718535 761.121749,330.279863 766.504413,333.563616 C775.759968,339.21167 784.752955,346.501602 796.04342,347.289703 C809.762648,348.209153 821.906462,339.671396 832.146651,331.659039 C833.131284,330.870938 831.752797,329.491762 830.768164,330.279863 C820.790544,338.029519 808.843656,346.501602 795.45264,345.253776 C783.833964,344.202975 774.64405,335.796568 764.863357,330.345538 C742.348069,317.735927 718.257368,327.65286 696.661072,337.175744 C682.810559,343.217849 668.434909,349.062929 653.074626,348.143478 C651.761781,348.012128 651.761781,349.98238 653.008983,350.048055 L653.008983,350.048055 Z" id="Path" fill="#E8E8E8"></path>
                    <path d="M33.4118991,475.618764 C42.9300236,466.555606 57.0431048,463.009153 69.7120567,466.489931 C82.9717888,470.102059 91.5052797,481.529519 102.139322,489.410526 C123.341765,505.106865 152.22435,502.611213 175.527344,493.35103 C203.031442,482.44897 225.940583,462.746453 253.379039,451.647368 C266.770055,446.196339 281.27699,442.715561 295.849567,443.700686 C310.02829,444.685812 322.106462,450.793593 333.331284,459.06865 C344.490465,467.278032 354.993223,476.997941 368.056028,482.18627 C382.037825,487.702975 397.791962,486.520824 410.92041,479.230892 C412.036328,478.639817 411.051694,476.932265 409.935776,477.523341 C396.54476,484.944622 380.528054,485.601373 366.546257,479.427918 C354.861939,474.239588 345.278172,465.570481 335.103625,457.952174 C324.666509,450.136842 313.572971,444.029062 300.444523,442.19016 C286.922222,440.351259 273.137352,442.649886 260.337116,446.918764 C232.30788,456.310297 209.201812,475.684439 182.616706,488.097025 C158.066509,499.59016 126.492593,504.975515 103.189598,487.702975 C91.570922,479.099542 82.4466509,466.818307 67.4802206,463.928604 C54.8112687,461.498627 41.3546099,465.30778 32.0334121,474.239588 C31.1144208,475.093364 32.4929078,476.538215 33.4118991,475.618764 L33.4118991,475.618764 Z" id="Path" fill="#E8E8E8"></path>
                    <path d="M285.609377,512.265446 C296.440347,505.238215 309.306225,501.888787 322.237746,502.939588 C334.053349,503.924714 345.21253,508.324943 356.043499,512.725172 C366.546257,516.99405 377.180299,521.459954 388.470764,523.298856 C400.286367,525.203432 412.233255,523.758581 423.589362,520.277803 C437.177305,516.0746 449.780615,509.375744 462.186998,502.611213 C463.302916,502.020137 462.318282,500.312586 461.202364,500.903661 C438.49015,513.184897 413.546099,526.122883 386.895351,521.000229 C364.642632,516.73135 345.081245,502.939588 322.172104,500.969336 C308.912372,499.85286 295.65264,503.333638 284.559102,510.557895 C283.574468,511.28032 284.559102,512.987872 285.609377,512.265446 L285.609377,512.265446 Z" id="Path" fill="#E8E8E8"></path>
                    <path d="M149.073522,141.792449 C167.453349,156.043936 191.412766,149.73913 211.433649,143.171625 C236.246414,134.962243 261.387392,129.773913 287.644287,129.248513 C288.891489,129.248513 288.891489,127.278261 287.644287,127.278261 C263.487943,127.737986 239.659811,131.875515 216.685028,139.362471 C195.876438,146.127002 170.013396,155.649886 150.452009,140.413272 C149.467376,139.625172 148.088889,141.004348 149.073522,141.792449 L149.073522,141.792449 Z" id="Path" fill="#414042"></path>
                    <path d="M681.300788,186.976888 C700.468322,179.883982 720.35792,189.997941 739.525453,191.836842 C749.831284,192.821968 760.071474,191.836842 770.114736,189.47254 C779.961072,187.108238 789.544838,183.62746 799.588101,182.116934 C810.353428,180.475057 821.84082,181.131808 831.162017,187.239588 C832.212293,187.962014 833.196927,186.254462 832.146651,185.532037 C815.604807,174.761327 795.386998,180.540732 777.926162,185.400686 C766.963909,188.487414 756.001655,190.720366 744.579905,190.260641 C733.683294,189.86659 723.246178,186.845538 712.612136,184.612586 C702.043735,182.445309 691.147124,181.263158 680.841292,185.072311 C679.59409,185.466362 680.119228,187.370938 681.300788,186.976888 L681.300788,186.976888 Z" id="Path" fill="#414042"></path>
                    <path d="M222.133333,570.650572 C227.450355,564.345767 235.655634,560.930664 243.926556,561.981465 C248.652797,562.57254 252.985185,564.739817 257.317573,566.644394 C260.927896,568.220595 264.603861,569.534096 268.345469,570.584897 C284.427817,575.050801 301.691726,574.39405 317.380221,568.877346 C318.561781,568.483295 318.036643,566.578719 316.855083,566.972769 C299.262963,573.080549 279.832861,573.080549 262.306383,566.513043 C254.691883,563.689016 247.602522,559.157437 239.134673,559.814188 C231.979669,560.339588 225.349803,563.754691 220.689204,569.205721 C219.901497,570.256522 221.345626,571.635698 222.133333,570.650572 L222.133333,570.650572 Z" id="Path" fill="#414042"></path>
                    <path d="M333.856422,565.265217 C345.80331,561.784439 358.078408,560.076888 370.550433,560.142563 C371.797636,560.142563 371.797636,558.172311 370.550433,558.172311 C357.947124,558.106636 345.475099,559.879863 333.331284,563.360641 C332.149724,563.754691 332.60922,565.659268 333.856422,565.265217 L333.856422,565.265217 Z" id="Path" fill="#414042"></path>
                    <path d="M349.479275,54.7729977 C361.097951,63.7048055 372.191489,73.2933638 382.825532,83.4729977 C383.744523,84.3267735 385.12301,82.9475973 384.204019,82.0938215 C373.504334,71.8485126 362.213869,62.1942792 350.463909,53.1311213 C349.479275,52.2773455 348.494641,53.984897 349.479275,54.7729977 L349.479275,54.7729977 Z" id="Path" fill="#414042"></path>
                    <path d="M235.655634,89.3837529 C236.771552,83.2102975 237.953113,77.0368421 239.069031,70.7977117 C239.3316,69.5498856 237.427975,69.0244851 237.165406,70.2723112 C236.049488,76.4457666 234.867928,82.619222 233.752009,88.8583524 C233.555083,90.1061785 235.458708,90.6315789 235.655634,89.3837529 L235.655634,89.3837529 Z" id="Path" fill="#414042"></path>
                </g>
                <g id="details" transform="translate(46.000000, 0.000000)">
                    <ellipse id="Oval" fill="#EC615B" cx="567.646269" cy="127.903125" rx="3.80354478" ry="3.80625"></ellipse>
                    <ellipse id="Oval" fill="#EC615B" cx="70.6934701" cy="441.525" rx="4.52490672" ry="4.528125"></ellipse>
                    <ellipse id="Oval" fill="#EC615B" cx="48.7902985" cy="25.4625" rx="10.3613806" ry="10.36875"></ellipse>
                    <ellipse id="Oval" fill="#EC615B" cx="69.5786381" cy="42.39375" rx="3.47565299" ry="3.478125"></ellipse>
                    <ellipse id="Oval" fill="#EC615B" cx="268.149907" cy="621.8625" rx="7.73824627" ry="7.74375"></ellipse>
                    <ellipse id="Oval" fill="#EC615B" cx="627.781623" cy="42.525" rx="6.82014925" ry="6.825"></ellipse>
                    <ellipse id="Oval" fill="#EC615B" cx="636.503545" cy="30.121875" rx="4.19701493" ry="4.2"></ellipse>
                    <ellipse id="Oval" fill="#FEBC11" cx="59.2172575" cy="14.56875" rx="10.3613806" ry="10.36875"></ellipse>
                    <ellipse id="Oval" fill="#FEBC11" cx="54.0365672" cy="446.971875" rx="5.1806903" ry="5.184375"></ellipse>
                    <ellipse id="Oval" fill="#FEBC11" cx="236.147668" cy="609.984375" rx="4.59048507" ry="4.59375"></ellipse>
                    <ellipse id="Oval" fill="#FEBC11" cx="602.599534" cy="15.028125" rx="10.8860075" ry="10.89375"></ellipse>
                    <ellipse id="Oval" fill="#FEBC11" cx="423.373881" cy="188.540625" rx="2.3608209" ry="2.3625"></ellipse>
                    <path d="M399.175466,50.26875 C397.798321,53.484375 396.486754,56.765625 395.109608,59.98125 C394.65056,61.1625 396.552332,61.6875 397.011381,60.50625 C398.388526,57.290625 399.700093,54.009375 401.077239,50.79375 C401.536287,49.6125 399.634515,49.0875 399.175466,50.26875 L399.175466,50.26875 Z" id="Path" fill="#FEBC11"></path>
                    <path d="M398.847575,51.84375 C401.273974,54.403125 403.175746,57.290625 404.421735,60.571875 C404.880784,61.753125 406.782556,61.228125 406.323507,60.046875 C404.880784,56.4375 402.847854,53.2875 400.22472,50.465625 C399.372201,49.546875 397.929478,50.925 398.847575,51.84375 L398.847575,51.84375 Z" id="Path" fill="#FEBC11"></path>
                    <path d="M395.634235,61.6875 C397.536007,65.23125 399.700093,68.578125 402.126493,71.728125 C402.913433,72.7125 404.61847,71.728125 403.83153,70.74375 C401.405131,67.528125 399.241045,64.18125 397.339272,60.703125 C396.683489,59.5875 395.04403,60.571875 395.634235,61.6875 L395.634235,61.6875 Z" id="Path" fill="#FEBC11"></path>
                    <path d="M404.552892,60.703125 C403.765951,64.378125 403.04459,68.053125 402.257649,71.728125 C401.995336,72.975 403.897108,73.5 404.159422,72.253125 C404.946362,68.578125 405.667724,64.903125 406.454664,61.228125 C406.716978,60.046875 404.815205,59.521875 404.552892,60.703125 L404.552892,60.703125 Z" id="Path" fill="#FEBC11"></path>
                    <path d="M583.909701,331.209375 C582.335821,334.096875 581.286567,337.18125 580.827519,340.4625 C580.630784,341.709375 582.532556,342.234375 582.729291,340.9875 C583.18834,337.903125 584.106437,335.015625 585.614739,332.259375 C586.204944,331.078125 584.499907,330.09375 583.909701,331.209375 L583.909701,331.209375 Z" id="Path" fill="#FEBC11"></path>
                    <path d="M583.778545,331.8 C585.090112,335.278125 586.598414,338.625 588.303451,341.840625 C588.893657,342.95625 590.598694,341.971875 590.008489,340.85625 C588.36903,337.771875 586.926306,334.55625 585.680317,331.275 C585.221269,330.09375 583.319496,330.61875 583.778545,331.8 L583.778545,331.8 Z" id="Path" fill="#FEBC11"></path>
                    <path d="M580.434049,341.840625 C582.139086,344.26875 583.778545,346.696875 585.483582,349.125 C586.204944,350.175 587.909981,349.190625 587.188619,348.140625 C585.483582,345.7125 583.844123,343.284375 582.139086,340.85625 C581.417724,339.80625 579.712687,340.790625 580.434049,341.840625 L580.434049,341.840625 Z" id="Path" fill="#FEBC11"></path>
                    <path d="M587.58209,341.5125 C586.204944,343.415625 585.54916,345.58125 585.54916,347.878125 C585.54916,349.125 587.516511,349.125 587.516511,347.878125 C587.516511,345.909375 588.106716,344.071875 589.287127,342.496875 C590.008489,341.446875 588.303451,340.4625 587.58209,341.5125 L587.58209,341.5125 Z" id="Path" fill="#FEBC11"></path>
                    <path d="M35.3467351,516.99375 C33.5761194,520.865625 31.8055037,524.671875 30.0348881,528.54375 C29.5102612,529.659375 31.2152985,530.709375 31.7399254,529.528125 C33.510541,525.65625 35.2811567,521.85 37.0517724,517.978125 C37.5763993,516.8625 35.9369403,515.878125 35.3467351,516.99375 L35.3467351,516.99375 Z" id="Path" fill="#FEBC11"></path>
                    <path d="M35.6746269,517.51875 C37.3796642,521.5875 39.0847015,525.65625 40.7897388,529.725 C41.2487873,530.90625 43.1505597,530.38125 42.6915112,529.2 C40.9864739,525.13125 39.2814366,521.0625 37.5763993,516.99375 C37.1173507,515.8125 35.2155784,516.3375 35.6746269,517.51875 L35.6746269,517.51875 Z" id="Path" fill="#FEBC11"></path>
                    <path d="M29.5758396,530.315625 C31.3464552,533.79375 33.0514925,537.3375 34.8221082,540.815625 C35.15,541.40625 35.9369403,541.40625 36.3959888,541.0125 C37.7731343,539.896875 38.4289179,537.99375 39.1502799,536.484375 C40.1995336,534.384375 41.2487873,532.284375 42.298041,530.184375 C42.8882463,529.06875 41.183209,528.084375 40.5930037,529.2 C39.6749067,531.0375 38.6912313,532.875 37.7731343,534.7125 C36.986194,536.2875 36.2648321,538.453125 34.8876866,539.56875 C35.4123134,539.634375 35.9369403,539.7 36.4615672,539.765625 C34.6909515,536.2875 32.9859142,532.74375 31.2152985,529.265625 C30.6906716,528.215625 28.9856343,529.2 29.5758396,530.315625 L29.5758396,530.315625 Z" id="Path" fill="#FEBC11"></path>
                    <path d="M695.39291,211.96875 C693.359981,215.840625 692.113993,219.909375 691.523787,224.240625 C691.327052,225.4875 693.294403,225.4875 693.491138,224.240625 C694.015765,220.2375 695.196175,216.496875 697.032369,212.953125 C697.688153,211.8375 695.983116,210.853125 695.39291,211.96875 L695.39291,211.96875 Z" id="Path" fill="#FEBC11"></path>
                    <path d="M695.130597,214.265625 C697.163526,218.203125 699.130877,222.140625 701.163806,226.078125 C701.754011,227.19375 703.459049,226.209375 702.868843,225.09375 C700.835914,221.15625 698.868563,217.21875 696.835634,213.28125 C696.245429,212.165625 694.540392,213.15 695.130597,214.265625 L695.130597,214.265625 Z" id="Path" fill="#FEBC11"></path>
                    <path d="M691.654944,224.503125 C693.294403,228.440625 695.261754,232.115625 697.622575,235.59375 C698.343937,236.64375 700.048974,235.659375 699.327612,234.609375 C697.032369,231.2625 695.065019,227.71875 693.556716,223.978125 C693.097668,222.8625 691.195896,223.3875 691.654944,224.503125 L691.654944,224.503125 Z" id="Path" fill="#FEBC11"></path>
                    <path d="M700.573601,225.35625 C699.39319,229.03125 698.409515,232.771875 697.753731,236.64375 C697.556996,237.890625 699.458769,238.415625 699.655504,237.16875 C700.311287,233.3625 701.229384,229.621875 702.475373,225.88125 C702.868843,224.7 700.967071,224.175 700.573601,225.35625 L700.573601,225.35625 Z" id="Path" fill="#FEBC11"></path>
                    <path d="M687.785821,530.578125 C686.998881,533.203125 686.277519,535.7625 685.490578,538.3875 C685.162687,539.634375 686.998881,540.09375 687.392351,538.9125 C688.179291,536.2875 688.900653,533.728125 689.687593,531.103125 C690.081063,529.85625 688.179291,529.33125 687.785821,530.578125 L687.785821,530.578125 Z" id="Path" fill="#FEBC11"></path>
                    <path d="M687.654664,532.021875 C688.835075,534.646875 690.081063,537.271875 691.261474,539.83125 C691.786101,541.0125 693.491138,539.9625 692.966511,538.846875 C691.786101,536.221875 690.540112,533.596875 689.359701,531.0375 C688.835075,529.85625 687.130037,530.840625 687.654664,532.021875 L687.654664,532.021875 Z" id="Path" fill="#FEBC11"></path>
                    <path d="M686.015205,539.634375 C686.60541,542.71875 688.048134,545.475 690.081063,547.8375 C690.933582,548.821875 692.310728,547.378125 691.458209,546.459375 C689.622015,544.359375 688.441604,541.865625 687.916978,539.175 C687.654664,537.8625 685.752892,538.3875 686.015205,539.634375 L686.015205,539.634375 Z" id="Path" fill="#FEBC11"></path>
                    <path d="M691.195896,539.371875 C690.343377,542.128125 689.949907,544.95 690.015485,547.771875 C690.081063,549.01875 692.048414,549.01875 691.982836,547.771875 C691.917257,545.08125 692.245149,542.45625 693.097668,539.896875 C693.491138,538.715625 691.589366,538.190625 691.195896,539.371875 L691.195896,539.371875 Z" id="Path" fill="#FEBC11"></path>
                    <path d="M10.623694,184.340625 C9.18097015,187.490625 7.80382463,190.640625 6.36110075,193.790625 C5.83647388,194.90625 7.54151119,195.95625 8.06613806,194.775 C9.50886194,191.625 10.8860075,188.475 12.3287313,185.325 C12.8533582,184.209375 11.1483209,183.159375 10.623694,184.340625 L10.623694,184.340625 Z" id="Path" fill="#FEBC11"></path>
                    <path d="M6.62341418,195.43125 C8.13171642,199.303125 9.5744403,203.109375 11.0827425,206.98125 C11.541791,208.1625 13.4435634,207.6375 12.9845149,206.45625 C11.4762127,202.584375 10.0334888,198.778125 8.52518657,194.90625 C8.06613806,193.725 6.16436567,194.25 6.62341418,195.43125 L6.62341418,195.43125 Z" id="Path" fill="#FEBC11"></path>
                    <path d="M10.623694,184.471875 C12.6566231,188.015625 14.6895522,191.625 16.7224813,195.16875 C17.3782649,196.284375 19.0177239,195.3 18.4275187,194.184375 C16.3945896,190.640625 14.3616604,187.03125 12.3287313,183.4875 C11.6729478,182.371875 9.96791045,183.35625 10.623694,184.471875 L10.623694,184.471875 Z" id="Path" fill="#FEBC11"></path>
                    <path d="M17.1815299,194.315625 C15.0830224,198.253125 13.2468284,202.321875 11.6729478,206.45625 C11.2138993,207.6375 13.1156716,208.1625 13.5747201,206.98125 C15.0830224,202.978125 16.8536381,199.040625 18.8865672,195.3 C19.4767724,194.184375 17.7717351,193.2 17.1815299,194.315625 L17.1815299,194.315625 Z" id="Path" fill="#FEBC11"></path>
                    <path d="M504.953358,244.846875 C506.264925,242.353125 508.756903,240.646875 511.642351,240.778125 C514.003172,240.84375 515.773787,242.484375 517.872295,243.271875 C521.544683,244.584375 522.659515,242.221875 525.413806,240.45 C529.151772,237.95625 532.758582,243.534375 536.758862,243.46875 C539.054104,243.403125 540.955877,242.2875 541.021455,239.859375 C540.496828,240.121875 540.03778,240.45 539.513153,240.7125 C541.546082,241.7625 543.579011,242.8125 545.546362,243.928125 C546.661194,244.51875 547.644869,242.8125 546.530037,242.221875 C544.497108,241.171875 542.464179,240.121875 540.496828,239.00625 C539.841045,238.678125 539.054104,239.071875 538.988526,239.859375 C538.791791,244.51875 529.741978,237.890625 528.03694,237.69375 C524.167817,237.16875 522.659515,241.959375 519.315019,241.434375 C515.773787,240.84375 513.544123,238.284375 509.740578,238.940625 C506.855131,239.465625 504.49431,241.2375 503.182743,243.8625 C502.723694,244.978125 504.363153,245.9625 504.953358,244.846875 L504.953358,244.846875 Z" id="Path" fill="#FEBC11"></path>
                    <path d="M530.069869,231.525 C533.020896,228.24375 537.676959,232.378125 541.021455,232.771875 C544.890578,233.23125 547.907183,229.096875 551.645149,231.196875 C554.727332,232.96875 560.367071,237.16875 562.596735,231.7875 C563.055784,230.60625 561.154011,230.08125 560.694963,231.2625 C559.121082,235.06875 553.481343,229.753125 551.579571,228.965625 C549.022015,227.85 547.316978,228.76875 545.021735,229.884375 C542.267444,231.196875 540.300093,230.7375 537.676959,229.55625 C536.496549,229.03125 535.316138,228.571875 534.004571,228.375 C531.971642,228.1125 530.135448,228.50625 528.692724,230.08125 C527.840205,231.065625 529.217351,232.44375 530.069869,231.525 L530.069869,231.525 Z" id="Path" fill="#FEBC11"></path>
                    <path d="M476.820243,76.715625 C477.73834,75.009375 478.787593,74.55 479.968004,75.3375 C480.492631,75.534375 481.017257,75.796875 481.541884,76.125 C482.13209,76.3875 482.722295,76.78125 483.3125,76.978125 C484.361754,77.30625 485.411007,77.4375 486.460261,77.175 C489.280131,76.3875 490.722854,72.84375 493.739459,72.909375 C496.559328,72.975 498.592257,75.665625 501.543284,74.2875 C502.789272,73.696875 503.641791,72.646875 504.822201,71.990625 C507.445336,70.546875 510.658675,71.071875 512.88834,72.909375 C513.872015,73.696875 515.24916,72.31875 514.265485,71.53125 C511.314459,69.103125 507.248601,68.38125 503.838526,70.284375 C502.330224,71.1375 501.084235,72.975 499.116884,72.7125 C498.002052,72.58125 497.018377,71.79375 495.969123,71.4 C494.395243,70.809375 492.952519,70.6125 491.378638,71.334375 C489.411287,72.253125 488.09972,74.8125 485.935634,75.271875 C483.181343,75.8625 481.345149,73.040625 478.787593,72.975 C476.361194,72.909375 473.541325,75.271875 475.180784,77.7 C475.836567,78.75 477.541604,77.765625 476.820243,76.715625 L476.820243,76.715625 Z" id="Path" fill="#EC615B"></path>
                    <path d="M498.592257,65.1 C499.379198,60.834375 506.789552,64.96875 509.412687,64.509375 C511.117724,64.246875 512.363713,63.065625 513.937593,62.475 C516.429571,61.490625 518.85597,61.884375 521.151213,63.2625 C522.266045,63.91875 523.24972,62.2125 522.134888,61.55625 C520.167537,60.375 518.06903,59.784375 515.839366,59.98125 C514.85569,60.046875 513.937593,60.309375 513.085075,60.6375 C510.46194,61.753125 509.412687,63 506.133769,62.2125 C502.986007,61.425 497.608582,59.85 496.756063,64.575 C496.428172,65.821875 498.329944,66.346875 498.592257,65.1 L498.592257,65.1 Z" id="Path" fill="#EC615B"></path>
                    <path d="M2.09850746,302.26875 C2.95102612,298.134375 8.65634328,303.778125 9.77117537,304.5 C11.0171642,305.353125 12.3943097,305.94375 13.9026119,305.615625 C15.8699627,305.2875 17.3782649,303.646875 19.411194,303.1875 C22.6901119,302.465625 25.9690299,303.515625 28.3298507,305.878125 C29.2479478,306.796875 30.6250933,305.353125 29.7069963,304.5 C27.6740672,302.465625 25.1820896,301.21875 22.2966418,301.021875 C20.8539179,300.890625 19.411194,301.0875 18.0340485,301.546875 C15.8699627,302.26875 14.1649254,304.36875 11.541791,303.31875 C8.7875,302.203125 7.73824627,299.38125 4.59048507,299.053125 C2.55755597,298.85625 0.655783582,299.64375 0.262313433,301.74375 C-0.0655783582,302.990625 1.83619403,303.515625 2.09850746,302.26875 L2.09850746,302.26875 Z" id="Path" fill="#EC615B"></path>
                    <path d="M23.9361007,297.54375 C25.3788246,295.575 32.0022388,299.5125 33.9040112,299.971875 C36.986194,300.69375 40.1339552,300.69375 43.2817164,300.3 C44.5277052,300.103125 44.0030784,298.2 42.7570896,298.396875 C37.3140858,299.11875 33.1170709,297.675 28.198694,295.70625 C25.9690299,294.853125 23.7393657,294.525 22.2310634,296.559375 C21.5097015,297.54375 23.2147388,298.528125 23.9361007,297.54375 L23.9361007,297.54375 Z" id="Path" fill="#EC615B"></path>
                    <path d="M183.816138,435.09375 C184.865392,433.453125 186.504851,432.403125 188.53778,432.403125 C190.242817,432.403125 191.292071,433.453125 192.800373,433.9125 C194.308675,434.4375 195.554664,434.109375 196.866231,433.25625 C199.423787,431.55 200.669776,429.45 204.145429,429.58125 C207.29319,429.646875 210.309795,431.15625 213.064086,432.534375 C214.178918,433.125 215.162593,431.41875 214.047761,430.828125 C208.867071,428.203125 202.571549,425.709375 197.587593,429.975 C196.472761,430.89375 196.341604,431.15625 194.636567,431.484375 C192.734795,431.878125 192.93153,431.615625 191.488806,431.025 C190.242817,430.5 189.062407,430.303125 187.685261,430.434375 C185.258862,430.696875 183.35709,432.075 182.111101,434.04375 C181.455317,435.159375 183.160354,436.14375 183.816138,435.09375 L183.816138,435.09375 Z" id="Path" fill="#EC615B"></path>
                    <path d="M205.653731,438.9 C208.735914,436.209375 214.572388,441.853125 218.375933,441.328125 C220.671175,441 221.720429,439.29375 223.228731,437.71875 C226.114179,434.634375 230.442351,434.175 233.983582,436.471875 C235.032836,437.128125 236.016511,435.4875 234.967257,434.765625 C232.409701,433.125 229.393097,432.6 226.442071,433.453125 C225.130504,433.846875 223.950093,434.4375 222.90084,435.290625 C221.326959,436.603125 220.343284,438.965625 218.113619,439.359375 C213.326399,440.2125 208.801493,433.51875 204.276586,437.521875 C203.358489,438.375 204.735634,439.753125 205.653731,438.9 L205.653731,438.9 Z" id="Path" fill="#EC615B"></path>
                    <path d="M116.204851,17.98125 C116.729478,15.815625 117.975466,14.109375 120.073974,13.190625 C121.910168,12.403125 123.41847,12.928125 125.320243,12.8625 C127.41875,12.73125 128.992631,11.68125 130.238619,10.10625 C132.140392,7.74375 133.386381,5.315625 136.075093,3.740625 C139.157276,1.96875 142.698507,1.640625 146.108582,2.690625 C147.354571,3.084375 147.813619,1.18125 146.633209,0.7875 C140.337687,-1.115625 134.107743,1.3125 130.304198,6.628125 C128.795896,8.728125 127.681063,10.828125 124.795616,10.89375 C123.025,10.959375 121.516698,10.565625 119.81166,11.15625 C116.926213,12.140625 114.958862,14.56875 114.303078,17.45625 C113.975187,18.703125 115.876959,19.228125 116.204851,17.98125 L116.204851,17.98125 Z" id="Path" fill="#EC615B"></path>
                    <path d="M125.451399,25.528125 C122.63153,18.046875 136.140672,18.440625 140.20653,16.996875 C145.256063,15.225 149.584235,12.075 153.846828,8.925 C154.830504,8.203125 153.846828,6.496875 152.863153,7.21875 C149.977705,9.384375 147.026679,11.484375 143.878918,13.190625 C139.944216,15.290625 136.20625,15.946875 131.943657,16.603125 C127.41875,17.325 121.516698,20.475 123.615205,25.9875 C124.008675,27.16875 125.910448,26.709375 125.451399,25.528125 L125.451399,25.528125 Z" id="Path" fill="#EC615B"></path>
                </g>
                <g id="rocket_1_" transform="translate(252.000000, 33.000000)">
                    <g id="fire" transform="translate(176.715178, 307.858877)">
                        <path d="M4.6642296,61.1779262 C9.65692606,48.1152574 18.1313714,39.5818557 26.8685902,30.7202462 C38.3649308,19.1016915 59.7152775,-2.49437896 81.4597845,0.918981723 C99.9853161,3.80721 97.9488215,21.5960705 123.372157,34.5274562 C147.350239,46.8024263 156.547312,34.6587393 180.4597,47.8526912 C184.007142,49.8219377 209.036318,64.0661544 214.751642,90.9791906 C217.116603,102.138254 216.525363,117.432736 211.59836,118.87685 C206.014423,120.517889 204.109315,88.3535286 181.773567,75.7503506 C164.69329,66.1010425 141.175062,70.7615927 139.269954,77.6539556 C137.23346,84.9401679 160.817381,89.7320011 174.153136,115.06964 C179.999846,126.097421 181.24802,136.140578 183.021742,149.925304 C184.664076,162.922331 186.50349,189.572801 180.4597,191.148198 C175.467004,192.46103 172.773575,174.672169 154.445124,160.099745 C144.788198,152.419683 134.474338,149.268889 113.846618,142.9673 C95.2553932,137.322126 85.8612406,134.565181 80.8028507,139.16009 C73.313806,145.986811 79.094823,163.316181 80.145917,166.401334 C87.503575,188.456895 106.29188,197.646712 104.912319,200.009808 C103.072905,202.963678 68.7809632,194.430276 40.7955856,167.057749 C16.8831973,143.623715 -9.85400619,99.0531015 4.6642296,61.1779262 Z" id="Path" fill="#EC615B"></path>
                        <path d="M219.153098,137.256485 C218.890324,139.094448 217.510763,149.33453 223.554554,155.898685 C230.255278,163.119256 238.401256,157.605366 246.612928,164.760295 C254.167666,171.32445 253.182266,181.170683 255.481534,180.973758 C258.109269,180.776833 262.116565,167.451598 256.466934,159.377687 C254.693213,156.817667 250.357451,154.520213 241.751618,150.056587 C232.948706,145.461679 231.766226,145.658603 229.466957,143.164224 C223.751634,136.993918 224.605648,128.920007 222.569153,128.920007 C220.992512,128.920007 219.612951,133.777482 219.153098,137.256485 Z" id="Path" fill="#EC615B"></path>
                        <path d="M162.656795,214.319666 C158.977967,219.833557 159.372127,225.741296 159.700594,231.977244 C160.094754,238.344474 160.357527,243.530157 164.10205,248.190707 C168.372119,253.507673 175.467004,255.739485 176.386711,254.557937 C177.109338,253.638956 173.890363,251.144577 170.999854,245.696328 C170.671387,245.039912 166.401318,236.966002 166.598398,227.513618 C166.795478,215.698139 173.758976,208.674493 171.985255,207.427303 C170.671387,206.44268 165.612997,209.856041 162.656795,214.319666 Z" id="Path" fill="#EC615B"></path>
                        <path d="M188.999839,105.485974 C200.036326,112.772186 193.992535,129.642065 201.218806,139.488297 C201.941433,140.472921 203.649461,139.488297 202.926834,138.503674 C195.437789,128.263592 201.810047,111.590638 189.985239,103.779293 C188.934145,103.057236 187.948745,104.763916 188.999839,105.485974 L188.999839,105.485974 Z" id="Path" fill="#EC615B"></path>
                        <path d="M185.058236,57.9614901 C196.883044,67.0200243 205.094715,79.9514099 208.379384,94.4581929 C208.642158,95.7053823 210.547266,95.1802499 210.284492,93.9330605 C206.868437,78.9011451 198.328298,65.6415517 186.10933,56.3204513 C184.992543,55.4671112 184.007142,57.1737915 185.058236,57.9614901 L185.058236,57.9614901 Z" id="Path" fill="#FEBC11"></path>
                        <path d="M146.956079,94.3269098 C156.415925,102.072613 163.839276,111.984487 168.437812,123.340476 C168.897666,124.522024 170.802774,123.996891 170.34292,122.815343 C165.547304,111.131147 158.123953,100.956706 148.33564,92.9484372 C147.415933,92.1607386 145.970678,93.5392111 146.956079,94.3269098 L146.956079,94.3269098 Z" id="Path" fill="#FEBC11"></path>
                        <path d="M173.036349,134.171332 C174.81007,138.897523 175.992551,143.689357 176.452404,148.678115 C176.583791,149.925304 178.554592,149.925304 178.423205,148.678115 C177.897658,143.492432 176.715178,138.503674 174.875763,133.646199 C174.547296,132.464651 172.642188,132.989784 173.036349,134.171332 L173.036349,134.171332 Z" id="Path" fill="#FEBC11"></path>
                        <path d="M71.9342452,145.067829 C70.2919108,154.979704 72.1970187,164.891578 77.5838754,173.42498 C78.2408091,174.475244 79.9488369,173.490621 79.2919031,172.440356 C74.2335133,164.432087 72.2627121,154.979704 73.839353,145.592962 C74.0364332,144.345772 72.1313253,143.82064 71.9342452,145.067829 L71.9342452,145.067829 Z" id="Path" fill="#FEBC11"></path>
                        <path d="M80.2116104,178.807587 C82.5765719,183.139929 85.5984671,187.012781 89.2116027,190.3605 C90.1313099,191.21384 91.5108708,189.835367 90.5911636,188.982027 C87.1094147,185.69995 84.2189062,181.958381 81.9196381,177.822963 C81.3283977,176.707057 79.62037,177.69168 80.2116104,178.807587 L80.2116104,178.807587 Z" id="Path" fill="#FEBC11"></path>
                        <path d="M4.79561635,78.769862 C4.27006935,85.0058094 4.86130972,91.1761153 6.63503083,97.215138 C6.96349771,98.4623275 8.86860557,97.9371951 8.5401387,96.6900056 C6.83211096,90.782266 6.24087059,84.8745263 6.76641758,78.769862 C6.89780433,77.5226725 4.92700309,77.5226725 4.79561635,78.769862 L4.79561635,78.769862 Z" id="Path" fill="#FEBC11"></path>
                        <path d="M8.60583207,103.910576 C9.65692606,109.030617 11.5620339,113.756809 14.3211557,118.220435 C14.9780894,119.270699 16.6861171,118.286076 16.0291834,117.235811 C13.4014484,112.903469 11.5620339,108.374202 10.5109399,103.385444 C10.2481664,102.203896 8.34305857,102.729028 8.60583207,103.910576 L8.60583207,103.910576 Z" id="Path" fill="#FEBC11"></path>
                    </g>
                    <g id="rocket">
                        <path d="M13.7956087,1.44411414 C11.9561942,6.43287206 9.72261944,13.2595934 7.55473808,21.530429 C5.32116334,30.1294722 0.0656933746,52.7758075 0.591240371,82.577072 C1.11678737,111.328072 6.76641758,132.464651 11.9561942,151.303777 C20.0364793,180.711192 29.8904854,201.847771 35.7371958,214.122742 C35.7371958,214.122742 54.3284208,253.442031 85.1386135,295.583907 C90.5911636,303.001403 97.5546613,312.388144 97.5546613,312.388144 C102.613051,319.149224 106.948814,324.794398 109.970709,328.864174 C112.401364,331.621119 115.488953,334.706272 119.496248,337.660142 C126.985293,343.239674 134.408644,346.06226 139.598421,347.506375 C148.13856,340.220162 156.678698,332.868309 165.218837,325.582096 C169.094746,329.258023 173.036349,332.868309 176.912258,336.544235 C182.299114,331.030345 187.094731,326.632361 190.839253,323.415925 C207.13121,309.302992 220.598352,302.082421 223.751634,300.37574 C226.445062,298.931626 228.74433,297.81572 230.320971,297.093663 C227.890316,292.236188 225.459662,287.378713 223.029007,282.455597 C226.970609,279.042236 231.503452,275.431951 236.561842,271.887307 C243.393953,267.095474 249.96329,263.222622 255.941387,260.203111 C255.875694,254.689221 255.153067,246.352743 251.539931,237.162926 C248.846503,230.270563 245.627528,225.610013 244.247967,223.640767 C229.072797,201.78213 273.809985,262.041074 215.342882,178.676304 C192.678668,146.38066 181.379407,130.167197 176.189631,123.471759 C159.963367,102.269538 147.218852,87.7627546 138.153167,77.457031 C120.810116,57.6989239 112.992604,50.3470701 106.68604,44.9644629 C98.0802083,37.481326 88.5546689,29.4074152 74.1678199,21.9242783 C65.1021342,17.2637281 57.6130895,14.7037076 46.7079893,10.9621391 C33.2408475,6.36723051 21.8758937,3.34771914 13.7956087,1.44411414 Z" id="Path" fill="#FFFFFF"></path>
                        <path d="M11.7591141,2.62566207 C-2.49634823,46.5398601 -2.49634823,93.9330605 7.7518182,138.700599 C10.3138598,149.925304 13.5328352,161.018726 17.3430509,171.849582 C19.2481588,177.363473 21.5474269,182.74608 23.5839215,188.194329 C24.3065486,190.097934 24.4379353,192.001539 25.2919492,193.905144 C26.5401233,196.859013 27.8539908,199.812883 29.1678583,202.766753 C31.5985132,208.280643 34.1605548,213.728892 36.8539831,219.177141 C39.5474115,224.559748 42.8320802,229.679789 45.2627351,235.128038 C46.1824423,237.162926 46.9707628,239.329097 48.0218568,241.298344 C49.4014177,243.792723 51.4379123,245.696328 52.8831665,248.125065 C55.9050618,253.179465 58.7955703,258.365147 61.9488522,263.353905 C76.3357013,286.525373 92.6933515,308.38401 109.445162,329.848797 C110.233483,330.83342 111.613043,329.454948 110.824723,328.470325 C96.0437137,309.499916 81.5911712,290.266942 68.5838831,270.114985 C65.3649077,265.126227 62.2773191,260.137469 59.2554239,255.017428 C57.8101696,252.588691 56.3649154,250.094312 54.9853545,247.599933 C53.6057937,245.171196 51.7663792,243.464515 50.3211249,241.101419 C49.1386442,239.132173 48.2846303,237.031643 47.4306165,234.931113 C46.2481357,232.108527 44.6714947,229.548506 43.2262405,226.857203 C40.4671187,221.802803 37.9050771,216.682762 35.4744223,211.49708 C32.9123807,206.048831 30.4817258,200.53494 28.051071,195.02105 C26.999977,192.592313 26.6058167,190.032292 25.6204161,187.537913 C24.5693221,184.84661 23.4525347,182.155306 22.4014407,179.398361 C18.3941449,168.830071 14.912396,158.064856 12.0218876,147.102717 C6.24087059,124.915873 2.89050848,102.138254 2.56204161,79.1637113 C2.23357474,53.3665815 5.78101696,27.5694517 13.7956087,2.95386983 C13.9926888,1.96924655 12.0875809,1.44411414 11.7591141,2.62566207 L11.7591141,2.62566207 Z" id="Path" fill="#000000"></path>
                        <path d="M12.6788213,2.62566207 C23.6496149,3.47900224 34.8174885,7.28621224 45.1313483,10.8964976 C55.3138214,14.5067829 65.3649077,18.445276 74.6933669,23.8278833 C93.2845919,34.5930977 109.707936,48.7060313 124.686025,64.0661544 C140.123968,79.8857684 154.18235,97.2807796 167.780879,114.675791 C181.313714,132.00516 194.255309,149.925304 206.73705,168.042372 C220.532659,188.194329 233.80272,208.740134 246.810008,229.482865 C247.466942,230.533129 249.17497,229.548506 248.518036,228.498241 C224.671341,190.623066 200.036326,153.207382 172.642188,117.760944 C146.167758,83.4304122 117.788221,48.3778236 80.6057706,25.0750727 C70.4889909,18.7078422 59.6495841,14.1129336 48.4817104,9.97751586 C37.18245,5.8420981 24.8320956,1.57539724 12.7445147,0.590773965 C11.4306472,0.590773965 11.4306472,2.56002052 12.6788213,2.62566207 L12.6788213,2.62566207 Z" id="Path" fill="#000000"></path>
                        <path d="M112.269977,329.258023 C142.88309,298.078286 177.306418,270.705759 214.554561,247.862499 C225.065501,241.429627 235.707828,235.390604 246.612928,229.745431 C247.729716,229.154657 246.744315,227.447977 245.627528,228.038751 C206.93413,248.256348 170.671387,273.134497 138.02178,302.082421 C128.693321,310.353256 119.627635,318.9523 110.890416,327.879551 C109.970709,328.798532 111.35027,330.177005 112.269977,329.258023 L112.269977,329.258023 Z" id="Path" fill="#000000"></path>
                        <path d="M110.364869,330.767779 C118.182381,339.498105 128.364854,345.668411 139.729808,348.425356 C140.977982,348.753564 141.503529,346.849959 140.255355,346.521751 C129.153174,343.764806 119.364862,337.857066 111.74443,329.323665 C110.890416,328.404683 109.510855,329.848797 110.364869,330.767779 L110.364869,330.767779 Z" id="Path" fill="#000000"></path>
                        <path d="M246.284461,230.270563 C251.408545,239.263456 254.364746,249.17533 255.02168,259.481054 C255.087374,260.728243 257.058175,260.728243 256.992481,259.481054 C256.335548,248.781481 253.247959,238.60704 247.992489,229.28594 C247.401249,228.170034 245.693221,229.154657 246.284461,230.270563 L246.284461,230.270563 Z" id="Path" fill="#000000"></path>
                        <path d="M140.912288,347.900224 C176.452404,315.473297 214.948722,286.459732 256.007081,261.319017 C257.058175,260.662602 256.072774,258.955921 255.02168,259.612337 C213.897628,284.818693 175.20423,313.963542 139.532728,346.521751 C138.61302,347.375091 139.992581,348.753564 140.912288,347.900224 L140.912288,347.900224 Z" id="Path" fill="#000000"></path>
                        <path d="M165.678691,326.763644 C169.291826,330.308288 172.904962,333.852932 176.518098,337.463217 C176.912258,337.857066 177.569192,337.857066 177.897658,337.463217 C188.539985,326.17287 200.496179,316.195354 213.569161,307.858877 C216.722443,305.823989 219.941418,303.920384 223.226087,302.082421 C225.328275,300.900873 229.335571,299.784967 230.583745,297.553154 C231.897612,295.321341 229.926811,292.30183 228.875717,290.398225 C227.036303,287.050505 224.868421,283.965353 222.50346,281.077124 C221.715139,280.092501 220.335578,281.470974 221.123899,282.455597 C223.423167,285.278184 225.459662,288.232053 227.167689,291.382848 C227.56185,292.039263 228.415863,293.15517 228.481557,293.942868 C228.218783,295.124416 227.95601,296.240323 227.693236,297.421871 C227.364769,297.618795 227.036303,297.750078 226.707836,297.947003 C225.393968,298.931626 223.68594,299.5224 222.240686,300.37574 C216.525363,303.592177 210.941426,307.071179 205.554569,310.812747 C195.043629,318.230243 185.32101,326.698003 176.518098,336.019103 C176.977951,336.019103 177.437805,336.019103 177.897658,336.019103 C174.284523,332.474459 170.671387,328.929815 167.058252,325.31953 C166.138544,324.46619 164.758983,325.844663 165.678691,326.763644 L165.678691,326.763644 Z" id="Path" fill="#000000"></path>
                        <path d="M16.4233436,164.957219 C32.5839138,145.921169 51.5036057,129.44514 70.8831512,113.756809 C90.3283901,98.0684782 110.693336,83.3647706 133.488937,72.9277639 C134.671418,72.4026315 133.620324,70.6959512 132.503537,71.2210836 C109.905016,81.5268072 89.7371497,96.0992317 70.4232976,111.590638 C50.7152852,127.475893 31.4671264,144.214489 15.0437828,163.513105 C14.1897689,164.56337 15.5693298,165.941843 16.4233436,164.957219 L16.4233436,164.957219 Z" id="Path" fill="#000000"></path>
                        <path d="M133.883097,82.1175811 C131.715216,82.2488643 130.795509,78.6385789 133.226164,78.4416543 C134.080178,78.3760127 135.065578,78.769862 135.394045,79.6232022 C135.853899,80.8703917 134.671418,82.1832227 133.423244,82.1832227 C132.503537,82.1832227 132.437843,83.6929784 133.423244,83.6929784 C135.459738,83.6929784 137.23346,81.7893734 136.904993,79.7544853 C136.642219,78.0478049 134.868498,76.9975401 133.226164,77.0631817 C131.452443,77.1944648 130.072882,78.6385789 130.269962,80.4109008 C130.467042,82.1832227 132.043683,83.8242615 133.883097,83.6929784 C134.868498,83.5616953 134.868498,82.0519396 133.883097,82.1175811 L133.883097,82.1175811 Z" id="Path" fill="#000000"></path>
                        <path d="M234.19688,227.316693 C234.262574,227.316693 234.262574,227.316693 234.328267,227.251052 C234.131187,227.251052 233.934107,227.18541 233.737027,227.18541 C234.459654,227.513618 234.065494,226.135146 233.9998,225.938221 C233.9998,225.741296 234.065494,225.47873 234.131187,225.281805 C234.328267,224.887956 234.656734,224.494107 235.050894,224.297182 C235.904908,223.903333 236.824615,224.559748 237.087389,225.413088 C237.612936,227.119769 235.116588,227.973109 234.459654,226.463353 C234.065494,225.610013 232.81732,226.33207 233.21148,227.18541 C233.9998,229.023374 236.693229,229.154657 238.007096,227.776184 C239.518044,226.135146 238.401256,223.3782 236.364762,222.787426 C234.19688,222.196652 232.094692,224.494107 232.620239,226.594636 C232.81732,227.447977 233.934107,228.498241 234.788121,227.644901 C235.445055,226.988486 234.788121,225.544372 233.80272,225.938221 C232.948706,226.266429 233.342867,227.644901 234.19688,227.316693 L234.19688,227.316693 Z" id="Path" fill="#000000"></path>
                        <path d="M13.7956087,1.83796345 C24.1751618,8.53340172 38.233544,18.3796345 53.6057937,31.5735864 C63.131333,39.7787803 87.8320418,61.7687001 118.707928,104.435709 C152.211549,150.713003 168.963359,173.818829 172.313722,199.615959 C174.021749,213.072477 176.386711,251.407143 142.554623,298.537777 C156.547312,287.903846 170.605694,277.204273 184.598383,266.570341 C190.707866,276.613499 196.751657,286.656656 202.861141,296.699814 C196.291803,301.557288 189.722466,306.349122 183.153128,311.206597 C186.372104,315.079448 189.591079,318.886658 192.810054,322.75951 C196.751657,318.9523 201.48158,314.882523 206.93413,310.878389 C215.342882,304.708083 223.423167,300.310099 230.386665,297.093663 C227.75893,292.039263 225.196888,286.919222 222.569153,281.864823 C233.868414,274.447328 245.167674,266.964191 256.466934,259.546695 C255.875694,253.967163 254.496133,245.893253 250.882998,236.834718 C246.678622,226.200787 241.357458,219.1115 239.320964,216.354554 C224.605648,196.465164 231.766226,201.256997 200.956033,157.999215 C178.817366,126.885119 166.598398,109.490108 147.021772,86.975056 C134.474338,72.5339146 126.131279,63.0158896 112.795524,51.2660519 C98.6057553,38.7285155 81.3940911,23.8278833 55.1167413,12.9313857 C38.3649308,6.10466431 23.6496149,3.21643603 13.7956087,1.83796345 Z" id="Path" fill="#494949" opacity="0.15"></path>
                        <path d="M224.737034,192.526671 C224.145794,196.72773 222.963313,203.160602 220.007112,210.446815 C213.175001,227.316693 202.664061,234.668547 180.722474,256.855392 C170.34292,267.35804 154.904977,282.915088 156.350232,284.621768 C157.729792,286.262807 174.61299,273.26578 204.109315,253.83588 C221.386672,242.41425 235.904908,233.552641 245.430447,227.776184 C238.532643,216.026347 231.634839,204.276509 224.737034,192.526671 Z" id="Path" fill="#494949" opacity="0.11"></path>
                        <path d="M246.810008,229.745431 C245.890301,229.942356 248.123876,237.097285 245.430447,246.024536 C243.459646,252.588691 240.109284,255.739485 231.897612,265.65136 C228.35017,269.918061 223.160393,276.350933 216.985216,284.621768 C229.861118,275.8258 242.737019,267.029832 255.612921,258.233864 C249.76621,234.996755 247.598329,229.614148 246.810008,229.745431 Z" id="Path" fill="#494949" opacity="0.08"></path>
                    </g>
                </g>
                <g id="guy" transform="translate(161.000000, 79.000000)">
                    <g id="leg_right" transform="translate(123.827586, 232.907459)">
                        <path d="M103.386207,165.528315 C103.582759,167.430939 104.303448,168.939917 105.417241,170.776934 C110.134483,178.387431 117.931034,183.04558 123.565517,185.735497 C121.337931,192.755525 118.651724,202.859116 116.686207,215.19337 C114.851724,227.06837 112.689655,240.911602 115.506897,241.83011 C116.489655,242.158149 119.372414,241.239641 146.168966,188.097376 C149.903448,180.683702 152.982759,174.516575 155.013793,170.31768 C140.731034,163.888122 126.513793,157.392956 112.231034,150.963398 C110.855172,152.013122 102.665517,157.983425 103.386207,165.528315 Z" id="Path" stroke="#161616" stroke-width="2" fill="#161616"></path>
                        <path d="M73.5103448,20.4040055 C61.4551724,28.8017956 53.6586207,36.9371547 46.7137931,44.285221 C43.8965517,47.2375691 30.4,61.605663 16.1827586,84.1747238 C9.89310345,94.1470994 5.24137931,102.938536 2.03103448,109.564917 C2.42413793,112.254834 3.34137931,116.125691 5.76551724,119.996547 C8.45172414,124.326657 11.4655172,126.229282 16.1827586,130.428177 C21.9482759,135.54558 24.0448276,138.563536 27.3862069,141.975138 C33.8724138,148.667127 42.9793103,153.718923 60.9310345,163.625691 C83.4689655,176.025552 95.5896552,180.552486 99.3241379,181.930249 C103.910345,183.570442 107.775862,184.816989 110.527586,185.66989 C111.837931,179.56837 113.410345,173.073204 115.375862,166.25 C117.144828,160.148481 119.044828,154.440608 120.944828,149.126381 C106.989655,138.891575 92.6413793,127.410221 78.0965517,114.41989 C73.0517241,109.958564 68.2034483,105.43163 63.5517241,100.970304 C68.2689655,95.2624309 74.8862069,87.7831492 83.2724138,79.7133978 C85.6965517,77.3515193 90.8068966,72.496547 97.0310345,67.3791436 C104.893103,61.0151934 116.751724,52.4861878 133.131034,44.6132597 C135.948276,25.7838398 132.606897,8.20096685 122.32069,2.49309392 C109.47931,-4.59254144 89.9551724,8.98825967 73.5103448,20.4040055 Z" id="Path" fill="#FFFFFF"></path>
                        <path d="M60.2758621,30.179558 C37.0827586,49.8618785 17.8862069,74.2023481 4.25862069,101.429558 C2.88275862,104.250691 0.917241379,107.399862 0.655172414,110.549033 C0.393103448,113.895028 2.42413793,116.453729 4.25862069,119.012431 C8.64827586,124.982735 13.6275862,130.559392 18.9344828,135.742403 C30.2034483,146.56768 43.1758621,155.490331 56.8034483,163.035221 C73.5758621,172.351519 91.3310345,179.765193 109.02069,187.11326 C110.2,187.572514 110.724138,185.66989 109.544828,185.210635 C80.5862069,173.138812 51.037931,160.804558 26.862069,140.269337 C21.4241379,135.611188 16.2482759,130.625 11.5965517,125.179558 C9.17241379,122.292818 6.74827586,119.34047 4.65172414,116.256906 C3.34137931,114.354282 2.35862069,112.582873 2.6862069,110.155387 C3.0137931,107.793508 4.38965517,105.562845 5.43793103,103.39779 C11.7275862,90.6042818 19.262069,78.4668508 27.9103448,67.1167127 C37.8034483,54.0607735 49.137931,42.1857735 61.6517241,31.6229282 C62.6344828,30.7700276 61.2586207,29.3922652 60.2758621,30.179558 L60.2758621,30.179558 Z" id="Path" fill="#000000"></path>
                        <path d="M115.834483,52.8142265 C93.362069,67.3791436 73.7068966,85.8149171 57.7862069,107.334254 C57.0655172,108.383978 58.7689655,109.368094 59.4896552,108.31837 C75.2137931,87.0614641 94.6724138,68.8225138 116.817241,54.4544199 C117.865517,53.8639503 116.882759,52.1581492 115.834483,52.8142265 L115.834483,52.8142265 Z" id="Path" fill="#000000"></path>
                        <path d="M62.437931,101.95442 C80.8482759,118.618785 99.7827586,134.627072 119.306897,149.913674 C120.289655,150.700967 121.665517,149.323204 120.682759,148.535912 C101.158621,133.249309 82.1586207,117.241022 63.8137931,100.576657 C62.8965517,99.7237569 61.5206897,101.101519 62.437931,101.95442 L62.437931,101.95442 Z" id="Path" fill="#000000"></path>
                        <path d="M119.372414,149.651243 C115.244828,161.32942 112.034483,173.270028 109.675862,185.407459 C109.413793,186.654006 111.313793,187.178867 111.575862,185.93232 C113.934483,173.79489 117.210345,161.854282 121.272414,150.176105 C121.665517,148.995166 119.765517,148.470304 119.372414,149.651243 L119.372414,149.651243 Z" id="Path" fill="#000000"></path>
                        <path d="M98.8655172,45.4661602 C89.8241379,46.253453 83.0103448,52.8798343 61.9793103,82.140884 C53.9206897,93.3598066 47.1724138,103.135359 41.9965517,110.877072 C49.4655172,116.125691 55.362069,120.455801 59.0965517,123.276934 C79.9965517,138.957182 88.7758621,147.748619 106.531034,157.327348 C110.396552,159.426796 113.606897,160.935773 115.506897,161.788674 C117.013793,157.655387 118.52069,153.522099 119.962069,149.388812 C114.982759,145.058702 110.003448,140.794199 104.958621,136.464088 C91.0689655,124.654696 77.3103448,113.23895 63.6172414,102.151243 C69.3172414,94.1470994 74.6896552,88.1111878 78.6206897,83.9779006 C90.2172414,71.8404696 101.748276,63.6395028 110.724138,57.3411602 C113.803448,55.176105 116.424138,53.4703039 118.127586,52.3549724 C109.675862,45.8598066 103.058621,45.0725138 98.8655172,45.4661602 Z" id="Path" fill="#494949" opacity="0.11"></path>
                        <path d="M101.486207,62.589779 C95.8517241,63.9019337 88.3172414,66.4606354 80.6517241,71.5780387 C61.9137931,84.109116 55.6241379,103.266575 53.7896552,109.827348 C63.8793103,117.700276 74.2965517,125.638812 85.1068966,133.577348 C95.5896552,141.319061 106.006897,148.667127 116.162069,155.752762 C117.668966,153.587707 119.175862,151.357044 120.617241,149.191989 C106.662069,139.02279 92.1827586,127.279006 77.7034483,113.82942 C73.1172414,109.630525 68.7275862,105.366022 64.5344828,101.167127 C66.8275862,98.1491713 69.3172414,95.0656077 71.937931,91.9164365 C81.7655172,80.2382597 91.8551724,70.5939227 101.486207,62.589779 Z" id="Path" fill="#494949" opacity="0.08"></path>
                    </g>
                    <g id="leg_left" transform="translate(212.931034, 219.129834)">
                        <path d="M136.406897,157.85221 C143.351724,164.412983 150.362069,171.039365 157.306897,177.600138 C155.472414,219.457873 158.944828,229.299033 162.613793,230.020718 C168.313793,231.13605 178.075862,211.388122 182.334483,195.839088 C185.544828,184.029696 185.872414,173.663674 185.544828,166.643646 C174.668966,156.933702 163.793103,147.223757 152.917241,137.448204 C147.413793,144.271409 141.910345,151.094613 136.406897,157.85221 Z" id="Path" stroke="#161616" stroke-width="2" fill="#161616"></path>
                        <path d="M0.0655172414,39.823895 C0.655172414,50.714779 8.25517241,57.3411602 8.25517241,57.3411602 C12.9724138,61.4744475 18.2793103,62.589779 20.9,62.9178177 C22.9965517,63.7707182 25.0931034,64.6892265 27.2551724,65.5421271 C30.5310345,70.265884 35.3793103,76.9578729 41.8,84.5683702 C50.3172414,94.8031768 61.7827586,107.006215 89.8241379,130.100138 C103.648276,141.450276 121.468966,155.424724 143.024138,170.776934 C146.103448,169.267956 149.772414,167.037293 153.441379,163.756906 C161.5,156.605663 165.234483,148.273481 166.937931,143.549724 C163.137931,139.875691 157.503448,134.364641 150.951724,127.541436 C121.862069,97.4274862 102.468966,71.6436464 87.662069,51.8301105 C77.9,38.7741713 65.3862069,21.3881215 51.562069,0.393646409 C19.9172414,9.0538674 -0.720689655,25.8494475 0.0655172414,39.823895 Z" id="Path" fill="#FFFFFF"></path>
                        <path d="M10.2206897,59.8342541 C15.462069,61.6712707 20.637931,63.4426796 25.8793103,65.2796961 C27.0586207,65.6733425 27.5827586,63.7707182 26.4034483,63.3770718 C21.162069,61.5400552 15.9862069,59.7686464 10.7448276,57.9316298 C9.56551724,57.5379834 9.04137931,59.4406077 10.2206897,59.8342541 L10.2206897,59.8342541 Z" id="Path" fill="#000000"></path>
                        <path d="M23.7172414,63.3114641 C48.3517241,97.230663 80.2586207,124.654696 113.344828,150.04489 C122.844828,157.327348 132.475862,164.544199 142.106897,171.695442 C143.155172,172.482735 144.072414,170.711326 143.089655,169.989641 C109.937931,145.38674 76.5896552,120.455801 48.4172414,90.1450276 C40.2275862,81.3535912 32.562069,72.0372928 25.4862069,62.3273481 C24.7,61.343232 22.9965517,62.3273481 23.7172414,63.3114641 L23.7172414,63.3114641 Z" id="Path" fill="#000000"></path>
                        <path d="M62.3724138,17.5828729 C85.5655172,53.2078729 111.706897,86.7990331 140.534483,118.028315 C148.855172,127.082182 157.437931,135.873619 166.151724,144.468232 C167.068966,145.38674 168.444828,143.94337 167.527586,143.09047 C137.193103,113.304558 109.413793,80.9599448 84.5172414,46.515884 C77.4413793,36.7403315 70.6275862,26.7679558 64.0103448,16.5987569 C63.3551724,15.5490331 61.6517241,16.5331492 62.3724138,17.5828729 L62.3724138,17.5828729 Z" id="Path" fill="#000000"></path>
                        <path d="M165.037931,143.221685 C161.237931,154.506215 153.9,165.003453 142.827586,169.989641 C141.648276,170.514503 142.696552,172.220304 143.810345,171.695442 C155.341379,166.512431 162.941379,155.490331 166.872414,143.746547 C167.331034,142.565608 165.431034,142.040746 165.037931,143.221685 L165.037931,143.221685 Z" id="Path" fill="#000000"></path>
                        <path d="M62.437931,16.5331492 C58.7034483,11.4813536 55.5586207,7.3480663 53.462069,4.65814917 C51.3655172,8.52900552 48.4827586,15.0241713 48.2206897,23.0939227 C47.6310345,41.3328729 60.9965517,49.1401934 99.3241379,91.6540055 C116.031034,110.155387 124.875862,121.308702 146.431034,143.352901 C151.475862,148.470304 155.734483,152.734807 158.813793,155.752762 C161.172414,151.619475 163.531034,147.486188 165.955172,143.352901 C145.186207,122.489641 128.741379,103.660221 116.424138,88.7672652 C104.565517,74.3991713 93.9517241,61.5400552 83.0103448,45.531768 C80.1931034,41.5296961 73.0517241,30.8356354 62.437931,16.5331492 Z" id="Path" fill="#494949" opacity="0.09"></path>
                        <path d="M74.0344828,34.9689227 C74.9517241,39.4958564 76.8517241,47.1719613 80.5862069,56.0946133 C91.3965517,81.5504144 107.382759,92.3100829 136.144828,124.129834 C141.648276,130.231354 150.165517,139.875691 160.124138,152.34116 C162.417241,149.060773 164.710345,145.845994 167.003448,142.565608 C164.906897,140.597376 161.565517,137.513812 157.503448,133.577348 C150.034483,126.360497 129.789655,106.218923 91.1344828,57.0787293 C86.9413793,51.8301105 81.0448276,44.2196133 74.0344828,34.9689227 Z" id="Path" fill="#494949" opacity="0.09"></path>
                    </g>
                    <g id="hand_right" transform="translate(0.000000, 137.776243)">
                        <path d="M5.11034483,43.6947514 C3.73448276,44.4820442 1.17931034,45.8598066 0.655172414,48.746547 C1.11022302e-16,51.961326 2.29310345,54.5856354 2.62068966,54.913674 C2.22758621,55.3729282 1.04827586,56.7506906 0.917241379,58.8501381 C0.786206897,62.3273481 3.86551724,64.3611878 3.99655172,64.4924033 C3.86551724,64.6236188 1.96551724,66.5918508 2.62068966,69.281768 C3.14482759,71.5780387 5.17586207,72.5621547 5.43793103,72.6277624 C5.30689655,73.0214088 4.84827586,74.7272099 5.7,76.3017956 C7.01034483,78.663674 10.1551724,78.5324586 10.4827586,78.5324586 C12.7103448,78.4012431 14.8068966,76.8922652 15.7896552,74.5959945 C17.0344828,75.3176796 20.3103448,77.0234807 24.7655172,76.5642265 C27.7793103,76.2361878 30.0068966,75.0552486 31.1862069,74.3335635 C33.5448276,78.4668508 37.2137931,84.0435083 42.6517241,89.7513812 C47.4344828,94.7375691 56.3448276,104.119475 69.5793103,107.990331 C86.0896552,112.845304 100.7,106.546961 109.086207,102.938536 C131.624138,93.2285912 142.827586,75.3832873 146.955172,68.6912983 C153.9,57.2755525 156.324138,47.5 158.42069,38.6429558 C161.827586,24.6029006 160.648276,19.0918508 159.534483,15.8770718 C158.87931,13.9088398 155.013793,2.62430939 146.103448,1.3121547 C138.831034,0.196823204 132.803448,6.42955801 132.082759,7.21685083 C129.593103,9.84116022 128.282759,13.3183702 125.662069,20.1415746 C124.351724,23.6187845 123.5,26.2430939 123.106897,27.4240331 C118.848276,41.2672652 116.686207,48.1560773 116.096552,49.5994475 C114.524138,53.5359116 110.789655,62.5241713 101.813793,69.5441989 C93.2310345,76.2361878 84.2551724,77.679558 80.2586207,78.2700276 C74.2310345,79.1229282 66.8275862,80.1726519 58.9655172,76.3017956 C50.1862069,71.9716851 46.2551724,64.0987569 45.2068966,61.9993094 C42.062069,55.5041436 41.4724138,48.2872928 41.0137931,43.1698895 C40.4241379,36.609116 40.8827586,31.4917127 37.0827586,27.4240331 C36.362069,26.7023481 34.6586207,24.8653315 32.8896552,25.1933702 C30.3344828,25.718232 28.8931034,30.6388122 27.5827586,35.2969613 C26.4689655,39.2334254 26.7965517,39.6926796 25.8793103,40.6111878 C23.9793103,42.5138122 21.5551724,41.5296961 13.2344828,41.9889503 C8.3862069,42.316989 6.68275862,42.8418508 5.11034483,43.6947514 Z" id="Path" fill="#FFFFFF"></path>
                        <path d="M18.6724138,40.8736188 C11.5965517,39.5614641 -0.851724138,41.3984807 0.131034483,51.1084254 C0.982758621,59.8342541 11.3344828,61.343232 17.5586207,57.5379834 C18.6068966,56.8819061 17.6241379,55.176105 16.5758621,55.8321823 C11.4,58.9813536 2.03103448,58.128453 2.03103448,50.2555249 C2.03103448,42.6450276 12.7103448,41.7921271 18.1482759,42.7762431 C19.3931034,43.038674 19.9172414,41.1360497 18.6724138,40.8736188 L18.6724138,40.8736188 Z" id="Path" fill="#000000"></path>
                        <path d="M1.83448276,54.3232044 C-5.24137931,62.9834254 11.7931034,73.8743094 16.837931,62.9834254 C17.362069,61.8680939 15.6586207,60.8183702 15.1344828,61.9993094 C11.2034483,70.3970994 -1.9,61.9993094 3.27586207,55.7009669 C4.06206897,54.7824586 2.6862069,53.3390884 1.83448276,54.3232044 L1.83448276,54.3232044 Z" id="Path" fill="#000000"></path>
                        <path d="M2.22758621,63.1146409 C0.720689655,66.5262431 1.76896552,70.8563536 5.24137931,72.6277624 C8.64827586,74.3991713 12.9068966,72.7589779 14.6758621,69.4785912 C15.2655172,68.3632597 13.562069,67.3791436 12.9724138,68.4944751 C11.662069,70.7907459 8.7137931,72.1029006 6.22413793,70.9219613 C3.73448276,69.7410221 2.81724138,66.5262431 3.93103448,64.0987569 C4.45517241,62.9834254 2.75172414,61.9993094 2.22758621,63.1146409 L2.22758621,63.1146409 Z" id="Path" fill="#000000"></path>
                        <path d="M3.8,71.9060773 C3.53793103,75.3832873 5.56896552,78.5324586 9.10689655,79.2541436 C12.3827586,79.910221 15.3965517,77.7451657 16.5103448,74.7928177 C16.9689655,73.6118785 15.0689655,73.0870166 14.6103448,74.2679558 C13.7586207,76.4986188 11.4,77.941989 9.04137931,77.2203039 C6.61724138,76.4986188 5.63448276,74.2679558 5.76551724,71.9060773 C5.83103448,70.6595304 3.86551724,70.6595304 3.8,71.9060773 L3.8,71.9060773 Z" id="Path" fill="#000000"></path>
                        <path d="M10.0241379,50.4523481 C11.7275862,50.2555249 13.4965517,50.3211326 14.937931,51.3052486 C16.3137931,52.2237569 17.1,54.0607735 16.3137931,55.5697514 C15.7241379,56.6850829 17.4275862,57.6691989 18.0172414,56.5538674 C19.0655172,54.5200276 18.6068966,52.1581492 17.0344828,50.5179558 C15.2655172,48.6153315 12.4482759,48.2216851 9.95862069,48.484116 C8.77931034,48.6809392 8.77931034,50.6491713 10.0241379,50.4523481 L10.0241379,50.4523481 Z" id="Path" fill="#000000"></path>
                        <path d="M16.1172414,76.1049724 C19.5241379,74.8584254 22.8,77.679558 26.337931,77.2859116 C29.0241379,76.9578729 31.3827586,75.5145028 33.6103448,74.2023481 C34.6586207,73.5462707 33.6758621,71.8404696 32.6275862,72.496547 C29.2862069,74.5303867 26.4034483,75.9737569 22.4068966,74.7928177 C19.9827586,74.0711326 18.0827586,73.2838398 15.5931034,74.2023481 C14.4137931,74.6616022 14.8724138,76.5642265 16.1172414,76.1049724 L16.1172414,76.1049724 Z" id="Path" fill="#000000"></path>
                        <path d="M18.1482759,42.5794199 C21.5551724,43.7603591 26.1413793,43.9571823 28.0413793,40.2175414 C29.0896552,38.1180939 28.4344828,35.5593923 28.8931034,33.3287293 C29.4172414,30.3107735 31.1206897,27.8176796 33.4793103,25.9150552 C34.462069,25.1277624 33.0862069,23.75 32.1034483,24.5372928 C29.5482759,26.6367403 27.7137931,29.5234807 27.0586207,32.8038674 C26.7310345,34.640884 27.1896552,36.8059392 26.6655172,38.5773481 C25.4862069,42.1201657 21.5551724,41.6609116 18.8034483,40.6767956 C17.4931034,40.2831492 16.9689655,42.1857735 18.1482759,42.5794199 L18.1482759,42.5794199 Z" id="Path" fill="#000000"></path>
                        <path d="M32.037931,26.0462707 C37.6068966,26.7679558 38.3275862,36.1498619 39.2448276,40.4143646 C40.3586207,45.9910221 40.9482759,51.6332873 41.9965517,57.2099448 C43.7,66.1325967 48.8758621,73.218232 57.1310345,77.2203039 C65.7793103,81.3535912 75.6068966,81.156768 84.6482759,78.663674 C93.9517241,76.0393646 103.582759,71.3156077 109.610345,63.5082873 C110.396552,62.5241713 109.02069,61.1464088 108.234483,62.1305249 C101.944828,70.265884 91.7241379,75.0552486 81.8965517,77.3515193 C72.0034483,79.6477901 61.1931034,78.7948895 52.937931,72.3653315 C44.0275862,65.4765193 43.8310345,55.1104972 42.062069,44.8100829 C41.2103448,39.9551105 40.4896552,34.7064917 38.7206897,30.1139503 C37.6068966,27.2272099 35.837931,24.6029006 32.6275862,24.1436464 C31.3172414,23.9468232 30.7931034,25.8494475 32.037931,26.0462707 L32.037931,26.0462707 Z" id="Path" fill="#000000"></path>
                        <path d="M30.5965517,75.5145028 C38.5241379,85.2244475 46.1896552,96.3121547 56.6724138,103.463398 C66.9586207,110.417818 79.6689655,111.139503 91.5931034,109.171271 C115.834483,105.103591 136.406897,88.6360497 148.2,67.3791436 C154.948276,55.3073204 158.944828,41.9233425 160.713793,28.211326 C160.844828,26.964779 158.87931,26.964779 158.748276,28.211326 C155.734483,51.6332873 145.513793,74.5959945 127.3,90.0794199 C118.324138,97.6899171 107.644828,103.39779 96.1793103,106.153315 C84.3206897,109.040055 70.6275862,109.433702 59.8172414,103.069751 C48.2862069,96.3121547 40.2275862,84.2403315 31.9724138,74.0711326 C31.1862069,73.1526243 29.8103448,74.5303867 30.5965517,75.5145028 L30.5965517,75.5145028 Z" id="Path" fill="#000000"></path>
                        <path d="M147.02069,1.04972376 C141.582759,-1.11533149 135.817241,1.7058011 132.017241,5.70787293 C127.562069,10.3004144 125.334483,16.4019337 123.696552,22.4378453 C121.796552,29.4578729 120.093103,36.4122928 117.406897,43.1698895 C114.524138,50.4523481 110.855172,57.3411602 106.662069,63.9019337 C105.941379,64.9516575 107.644828,65.9357735 108.365517,64.8860497 C115.113793,54.4544199 120.289655,43.1042818 123.5,31.0980663 C125.203448,24.7997238 126.317241,18.2389503 129.462069,12.5310773 C132.606897,6.75759669 139.289655,0.0656077348 146.496552,2.95234807 C147.675862,3.41160221 148.2,1.5089779 147.02069,1.04972376 L147.02069,1.04972376 Z" id="Path" fill="#000000"></path>
                        <path d="M12.9724138,70.8563536 C14.8068966,70.9875691 14.4137931,74.0711326 14.0862069,75.1864641 C13.6931034,76.3674033 15.5931034,76.8922652 15.9862069,75.711326 C16.837931,73.218232 16.2482759,69.1505525 12.9724138,68.8881215 C11.7275862,68.8225138 11.7275862,70.7907459 12.9724138,70.8563536 L12.9724138,70.8563536 Z" id="Path" fill="#000000"></path>
                        <path d="M14.0862069,64.820442 C14.4793103,66.3950276 13.8896552,68.035221 12.6448276,68.9537293 C11.5965517,69.6754144 12.5793103,71.3812155 13.6275862,70.6595304 C15.6586207,69.2161602 16.6413793,66.7230663 15.9862069,64.2955801 C15.7241379,63.0490331 13.8241379,63.573895 14.0862069,64.820442 L14.0862069,64.820442 Z" id="Path" fill="#000000"></path>
                        <path d="M15.2,57.9972376 C16.9689655,58.8501381 15.7896552,61.6712707 14.937931,62.7866022 C14.1517241,63.7707182 15.8551724,64.7548343 16.6413793,63.7707182 C18.1482759,61.8024862 18.9344828,57.6035912 16.1827586,56.2914365 C15.0689655,55.7665746 14.0862069,57.4723757 15.2,57.9972376 L15.2,57.9972376 Z" id="Path" fill="#000000"></path>
                        <path d="M1.70344828,58.2596685 C2.75172414,57.6691989 4.45517241,61.343232 8.84482759,63.1802486 C10.4827586,63.836326 12.5137931,64.2955801 21.8172414,63.1802486 C24.8310345,62.7866022 28.762069,62.2617403 33.4793103,61.4088398 C34.3965517,65.1484807 36.2965517,70.7907459 40.162069,76.6298343 C41.8,79.0573204 48.4172414,88.5048343 61.1931034,94.0814917 C74.8862069,100.117403 87.2689655,98.0835635 92.0517241,97.230663 C96.1137931,96.5089779 107.448276,94.3439227 117.537931,85.5524862 C124.286207,79.7133978 128.610345,72.6277624 134.965517,54.191989 C139.289655,41.6609116 144.531034,24.2748619 148.396552,2.68991713 C151.017241,5.37983425 155.07931,10.2348066 157.372414,17.4516575 C158.486207,20.9288674 159.534483,26.0462707 158.682759,34.0504144 C156.913793,51.3052486 148.265517,65.6733425 143.024138,73.0214088 C137.586207,80.6975138 127.889655,93.9502762 109.937931,102.151243 C107.513793,103.266575 93.8206897,109.236878 76.3931034,108.449586 C72.3965517,108.252762 68.7275862,108.055939 64.2068966,106.415746 C59.2931034,104.644337 54.3793103,100.051796 44.6172414,90.9979282 C40.5551724,87.2582873 36.5586207,83.3218232 32.4965517,77.6139503 C31.7103448,76.4986188 31.0551724,75.5145028 30.5965517,74.8584254 C29.2206897,75.7769337 27.1896552,76.8266575 24.8965517,76.5642265 C21.8172414,76.3017956 20.7689655,74.0711326 18.2137931,74.464779 C15.9862069,74.7928177 15.9862069,76.6298343 13.3,77.6139503 C11.2034483,78.3356354 8.25517241,78.2700276 6.28965517,76.7610497 C4.84827586,75.6457182 4.65172414,74.3991713 3.0137931,67.3135359 C1.44137931,60.359116 0.982758621,58.6533149 1.70344828,58.2596685 Z" id="Path" fill="#494949" opacity="0.11"></path>
                    </g>
                    <g id="torso" transform="translate(138.241379, 110.877072)">
                        <path d="M0.589655172,29.4578729 C1.50689655,35.7562155 3.27586207,45.7285912 6.94482759,57.5379834 C14.6758621,82.2064917 23.7827586,92.769337 35.837931,121.374309 C38.8517241,128.525552 43.1103448,139.285221 47.3034483,152.866022 C55.1,155.424724 69.5793103,158.901934 87.2689655,155.81837 C116.358621,150.766575 133.458621,131.477901 138.241379,125.638812 C128.282759,107.268646 118.258621,87.3895028 108.496552,66.066989 C98.8,44.9412983 90.3482759,24.6029006 83.0103448,5.24861878 C76.8517241,2.95234807 60.7344828,-2.16505525 40.9482759,2.68991713 C17.2965517,8.39779006 4.25862069,24.6029006 0.589655172,29.4578729 Z" id="Path" fill="#FEBC11"></path>
                        <path d="M58.1137931,0.459254144 C60.6034483,5.70787293 63.7482759,12.859116 67.0896552,21.519337 C77.5724138,49.0745856 81.3724138,71.7092541 82.7482759,79.7790055 C85.6965517,96.4433702 88.2517241,122.292818 84.0586207,155.490331 C93.1655172,155.227901 99.9137931,153.128453 104.172414,151.48826 C116.358621,146.633287 125.203448,138.16989 133.72069,129.968923 C135.686207,128.131906 137.193103,126.491713 138.175862,125.507597 C135.358621,120.652624 131.1,113.042127 126.12069,103.529006 C111.706897,76.1049724 102.272414,53.3390884 94.3448276,34.0504144 C91.5275862,27.2928177 87.662069,17.5828729 83.1413793,5.8390884 C79.537931,4.3301105 75.0172414,2.8211326 69.7103448,1.83701657 C65.3862069,0.984116022 61.4551724,0.590469613 58.1137931,0.459254144 Z" id="Path" fill="#494949" opacity="0.13"></path>
                        <path d="M101.486207,52.4861878 C102.6,64.2299724 103.517241,74.0711326 104.172414,81.156768 C106.662069,108.90884 107.12069,116.584945 107.317241,121.505525 C107.841379,133.118094 107.841379,142.631215 107.775862,148.86395 C111.837931,147.42058 117.07931,145.058702 122.517241,141.253453 C129.331034,136.464088 133.917241,131.21547 136.865517,127.344613 C125.072414,102.348066 113.27931,77.4171271 101.486207,52.4861878 Z" id="Path" fill="#494949" opacity="0.1"></path>
                    </g>
                    <g id="hand_left" transform="translate(185.413793, 97.099448)">
                        <path d="M7.79655172,2.68991713 C4.65172414,3.60842541 2.94827586,8.13535912 1.9,12.7935083 C-0.196551724,22.3066298 0.917241379,30.441989 1.31034483,33.2631215 C3.21034483,45.7941989 6.61724138,55.176105 7.73103448,58.2596685 C10.6137931,65.8701657 14.5448276,76.0393646 23.1275862,86.8646409 C28.0413793,93.031768 32.2344828,98.3459945 39.9655172,102.282459 C44.4862069,104.644337 53.8551724,109.433702 63.4862069,105.628453 C63.9448276,105.43163 73.3793103,101.560773 75.8034483,93.2941989 C76.3275862,91.4571823 76.4586207,89.6201657 76.6551724,86.0117403 C76.7862069,83.8466851 76.8517241,80.0414452 76.3931034,75.3176796 C75.737931,69.0849448 74.362069,64.2299724 73.3137931,60.7527624 C68.662069,45.3349448 66.3689655,37.6588398 61.5206897,30.9668508 C57.5241379,25.4558011 53.0034483,19.1574586 45.5344828,18.304558 C44.8793103,18.2389503 37.3448276,17.5172652 32.8896552,22.765884 C29.8103448,26.4399171 30.0068966,30.9668508 30.0724138,33.9848066 C30.2689655,39.7582873 32.4965517,43.8915746 35.9689655,50.2555249 C39.4413793,56.5538674 40.8172414,57.3411602 44.9448276,64.820442 C50.5793103,75.0552486 49.9896552,76.0393646 49.7275862,76.3017956 C48.6137931,77.2859116 44.1586207,74.2023481 43.1758621,73.480663 C42.2586207,72.8245856 40.9482759,71.9060773 39.3103448,70.1346685 C34.2,64.4267956 31.1862069,55.8321823 31.1862069,55.8321823 C28.5,50.5179558 24.962069,42.9730663 21.3586207,33.394337 C22.4724138,29.1298343 24.1758621,26.1118785 25.5517241,24.1436464 C27.7793103,20.9944751 30.2689655,18.8294199 30.8586207,14.8929558 C31.1206897,13.3839779 30.9896552,12.0718232 30.8586207,11.2189227 C31.9724138,10.1691989 32.3,8.59461326 31.7103448,7.28245856 C30.9896552,5.77348066 29.2206897,5.05179558 27.5172414,5.57665746 C27.5172414,5.37983425 27.3206897,3.67403315 25.8137931,2.75552486 C24.5689655,1.96823204 22.8655172,2.09944751 21.6206897,3.0179558 C19.6551724,1.5089779 18.0172414,1.11533149 16.837931,1.04972376 C15.462069,0.984116022 14.8068966,1.3121547 11.5310345,1.90262431 C8.77931034,2.62430939 8.58275862,2.49309392 7.79655172,2.68991713 Z" id="Path" fill="#FFFFFF"></path>
                        <path d="M24.2413793,30.3763812 C26.0103448,25.980663 28.237931,21.9785912 30.662069,17.9109116 C31.9068966,15.8114641 33.3482759,13.1871547 31.6448276,10.890884 C27.7793103,5.90469613 22.537931,12.2686464 20.9,15.5490331 C20.3103448,16.6643646 22.0137931,17.6484807 22.6034483,16.5331492 C23.5862069,14.5649171 24.7,12.1374309 26.9931034,11.4813536 C27.6482759,11.1533149 28.3034483,11.1533149 29.0241379,11.3501381 C29.2206897,12.859116 29.4172414,14.3680939 29.6793103,15.8770718 C29.4827586,16.7299724 28.3034483,18.1077348 27.8448276,18.8950276 C25.7482759,22.3722376 24.0448276,26.0462707 22.4724138,29.7859116 C21.8827586,31.0324586 23.7827586,31.4917127 24.2413793,30.3763812 L24.2413793,30.3763812 Z" id="Path" fill="#000000"></path>
                        <path d="M2.81724138,38.839779 C1.83448276,31.8197514 1.70344828,24.6685083 2.48965517,17.6484807 C3.21034483,11.2189227 4.5862069,1.44337017 13.4965517,3.28038674 C14.7413793,3.54281768 15.2655172,1.64019337 14.0206897,1.37776243 C7.01034483,-0.0656077348 2.62068966,4.92058011 1.44137931,11.2845304 C-0.327586207,20.535221 -0.393103448,29.9827348 0.917241379,39.3646409 C1.1137931,40.6111878 3.0137931,40.086326 2.81724138,38.839779 L2.81724138,38.839779 Z" id="Path" fill="#000000"></path>
                        <path d="M11.0068966,8.59461326 C11.7275862,6.88881215 12.5137931,5.11740331 13.8896552,3.80524862 C16.2482759,1.5089779 19.262069,2.75552486 21.8172414,4.00207182 C22.9310345,4.59254144 23.9137931,2.88674033 22.8,2.29627072 C20.1137931,0.918508287 17.1,-0.393646409 14.2172414,1.11533149 C11.7275862,2.42748619 10.4172414,5.11740331 9.36896552,7.5448895 C8.84482759,8.79143646 10.5482759,9.77555249 11.0068966,8.59461326 L11.0068966,8.59461326 Z" id="Path" fill="#000000"></path>
                        <path d="M16.837931,9.18508287 C19.262069,6.0359116 22.4724138,2.75552486 26.6655172,5.24861878 C27.7793103,5.90469613 28.762069,4.19889503 27.6482759,3.54281768 C22.6689655,0.590469613 18.4758621,3.80524862 15.462069,7.74171271 C14.6758621,8.79143646 16.0517241,10.1691989 16.837931,9.18508287 L16.837931,9.18508287 Z" id="Path" fill="#000000"></path>
                        <path d="M21.2275862,10.628453 C22.4724138,9.31629834 23.7827586,7.93853591 25.4862069,7.28245856 C27.5172414,6.42955801 31.2517241,6.95441989 30.4655172,10.0379834 C30.2034483,11.2845304 32.037931,11.8093923 32.3655172,10.5628453 C33.0206897,7.87292818 31.2517241,5.37983425 28.5655172,4.92058011 C24.962069,4.26450276 22.1448276,6.88881215 19.8517241,9.25069061 C19,10.1691989 20.3758621,11.5469613 21.2275862,10.628453 L21.2275862,10.628453 Z" id="Path" fill="#000000"></path>
                        <path d="M22.0137931,29.3922652 C19.7206897,34.3128453 22.537931,39.2990331 24.5034483,43.8259669 C27.2551724,50.1899171 30.137931,56.5538674 33.6758621,62.4585635 C38.262069,70.2002762 48.2206897,84.109116 58.637931,76.1705801 C59.6206897,75.3832873 58.637931,73.6774862 57.6551724,74.464779 C47.6310345,82.140884 38.3275862,66.6574586 34.2655172,59.5062155 C31.9068966,55.3073204 29.8103448,50.9772099 27.8448276,46.5814917 C25.8793103,42.1857735 21.4896552,35.2969613 23.7827586,30.3763812 C24.2413793,29.2610497 22.537931,28.211326 22.0137931,29.3922652 L22.0137931,29.3922652 Z" id="Path" fill="#000000"></path>
                        <path d="M30.4655172,24.4060773 C24.7,44.0227901 42.3896552,59.2437845 48.8758621,76.0393646 C49.3344828,77.2203039 51.2344828,76.695442 50.7758621,75.5145028 C44.4862069,59.2437845 26.7965517,43.8915746 32.3655172,24.9309392 C32.6931034,23.6843923 30.7931034,23.1595304 30.4655172,24.4060773 L30.4655172,24.4060773 Z" id="Path" fill="#000000"></path>
                        <path d="M0.851724138,38.3149171 C4.19310345,56.6850829 11.9896552,74.0711326 23.4551724,88.8328729 C29.0241379,95.9185083 35.3793103,102.80732 44.1586207,105.694061 C51.6275862,108.121547 61.9137931,109.368094 68.8586207,104.84116 C76.4586207,99.9861878 77.4413793,90.0794199 77.7689655,81.878453 C77.8344828,80.6319061 75.8689655,80.6319061 75.8034483,81.878453 C75.4103448,92.4412983 73.0517241,104.119475 60.537931,105.628453 C49.0068966,107.006215 38.262069,102.413674 30.4655172,94.0814917 C15.9862069,78.663674 6.4862069,58.5220994 2.6862069,37.7900552 C2.55517241,36.5435083 0.655172414,37.0683702 0.851724138,38.3149171 L0.851724138,38.3149171 Z" id="Path" fill="#000000"></path>
                        <path d="M31.7758621,27.0303867 C33.8724138,18.6325967 43.962069,18.0421271 50.2517241,21.7161602 C56.6724138,25.4558011 61.062069,32.2133978 64.2724138,38.7085635 C67.6137931,45.531768 70.037931,52.8798343 72.3965517,60.0966851 C75.0827586,68.3632597 77.1137931,77.0234807 75.737931,85.7493094 C75.5413793,86.9958564 77.4413793,87.5207182 77.637931,86.2741713 C79.2103448,76.3017956 76.7206897,66.6574586 73.5103448,57.2099448 C70.562069,48.6153315 67.6793103,39.7582873 62.7655172,32.0165746 C58.637931,25.4558011 52.4793103,18.6325967 44.3551724,17.5172652 C38.0655172,16.6643646 31.3827586,20.0759669 29.8103448,26.5055249 C29.5482759,27.7520718 31.4482759,28.2769337 31.7758621,27.0303867 L31.7758621,27.0303867 Z" id="Path" fill="#000000"></path>
                        <path d="M10.2206897,1.83701657 C15.462069,-0.262430939 20.5724138,2.03383978 21.8172414,2.62430939 C18.1482759,7.47928177 10.3517241,19.2230663 9.69655172,35.8218232 C8.7137931,59.4406077 22.8,75.1208564 27.7793103,80.6975138 C34.2,87.8487569 42.5862069,97.1650552 53.3965517,95.8529006 C59.4896552,95.1312155 65.2551724,91.0635359 68.2034483,85.8805249 C71.1517241,80.6975138 70.9551724,75.0552486 67.4172414,60.4903315 C61.9793103,38.4461326 56.0172414,25.5214088 56.8689655,25.1277624 C57.7206897,24.734116 64.7965517,35.8218232 70.1034483,49.730663 C70.6275862,51.1740331 75.0172414,62.8522099 76.5896552,78.926105 C77.5724138,88.8328729 76.7206897,92.9005525 74.6896552,96.5089779 C71.5448276,102.085635 66.4344828,104.578729 64.4689655,105.43163 C56.5413793,108.777624 48.9413793,106.415746 45.337931,105.169199 C32.4310345,100.839088 25.5517241,90.3418508 18.6068966,79.7790055 C7.92758621,63.4426796 4.97931034,49.468232 2.16206897,36.0186464 C0.196551724,26.7023481 -1.1137931,15.8770718 3.8,7.93853591 C4.65172414,6.29834254 6.55172414,3.34599448 10.2206897,1.83701657 Z" id="Path" fill="#494949" opacity="0.1"></path>
                    </g>
                    <g id="head" transform="translate(89.758621, 0.000000)">
                        <path d="M11.2689655,66.9854972 C11.0724138,70.0690608 12.1862069,73.5462707 14.5448276,80.5006906 C17.1655172,88.308011 19.9827586,96.6401934 27.0586207,104.84116 C31.5793103,110.089779 37.0827586,116.519337 46.4517241,118.356354 C53.8551724,119.799724 60.0793103,117.700276 63.2241379,116.388122 C63.9448276,118.356354 64.9275862,120.455801 66.1724138,122.620856 C69.4482759,128.394337 73.5103448,132.462017 76.7206897,135.151934 C79.1448276,134.889503 83.862069,133.905387 87.9241379,130.231354 C91.0689655,127.344613 92.5758621,123.933011 93.4931034,121.702348 C94.6068966,119.078039 95.1965517,116.781768 95.4586207,115.141575 C93.4931034,113.960635 91.3310345,112.38605 89.2344828,110.220994 C82.6827586,103.529006 80.9137931,95.5904696 80.3896552,91.785221 C81.2413793,84.2403315 82.1586207,76.6298343 83.0103448,69.0849448 C83.9931034,69.2161602 86.0896552,69.3473757 87.9241379,68.1008287 C89.9551724,66.7230663 90.3482759,64.4267956 90.8724138,61.8680939 C91.3965517,59.3093923 91.9862069,56.0290055 90.5448276,52.2893646 C89.8896552,50.6491713 87.7931034,45.4005525 83.337931,45.0725138 C80.3241379,44.8100829 77.2448276,46.8439227 75.4758621,49.9930939 C71.6758621,46.3190608 63.5517241,39.823895 52.1517241,38.7741713 C32.4310345,36.9371547 12.3827586,52.3549724 11.2689655,66.9854972 Z" id="Path" fill="#FFFFFF"></path>
                        <path d="M40.3586207,96.968232 C39.8344828,98.3459945 41.3413793,100.314227 42.4551724,101.298343 C45.5344828,103.98826 50.9724138,103.857044 54.9034483,102.020028 C60.4068966,99.461326 62.1758621,93.9502762 62.962069,91.4571823 C63.8793103,88.7016575 65.0586207,85.093232 63.1586207,81.878453 C61.5206897,79.0573204 58.637931,78.0732044 57.5241379,77.7451657 C56.4103448,80.0414365 55.5586207,81.7472376 54.9034483,82.8625691 C54.1172414,84.2403315 53.8551724,84.6995856 53.3965517,85.7493094 C52.7413793,87.1270718 52.6758621,87.6519337 51.7586207,88.8984807 C48.0241379,93.753453 42.9137931,95.5248619 42.9137931,95.5248619 C41.7344828,95.7872928 40.6862069,96.0497238 40.3586207,96.968232 Z" id="Path" fill="#000000"></path>
                        <path d="M12.3172414,74.8584254 C17.4931034,91.0635359 23.9793103,109.958564 40.6862069,117.569061 C47.5,120.652624 55.6241379,121.243094 62.5689655,118.225138 C70.3655172,114.879144 74.9517241,107.137431 78.0965517,99.6581492 C82.2241379,89.8825967 83.9931034,79.2541436 83.337931,68.6912983 C83.2724138,67.4447514 81.3068966,67.4447514 81.3724138,68.6912983 C82.0275862,79.7133978 80.062069,90.801105 75.4103448,100.839088 C70.8896552,110.614641 63.7482759,118.421961 52.2827586,118.290746 C29.2206897,118.028315 19.8517241,92.5725138 14.0862069,74.3991713 C13.8241379,73.0870166 11.9896552,73.6118785 12.3172414,74.8584254 L12.3172414,74.8584254 Z" id="Path" fill="#000000"></path>
                        <path d="M76.1965517,51.8301105 C76.262069,47.8936464 80.3241379,45.531768 83.9275862,46.6470994 C87.2689655,47.7624309 89.3655172,51.0428177 90.0862069,54.3232044 C90.7413793,57.4723757 90.4793103,61.1464088 89.4965517,64.1643646 C88.7103448,66.6574586 87.7275862,67.9696133 84.7137931,67.9696133 C83.6655172,67.9696133 82.6172414,67.5759669 81.5034483,67.5759669 C80.2586207,67.5759669 80.2586207,69.5441989 81.5034483,69.5441989 C83.7310345,69.5441989 85.8931034,70.5939227 88.0551724,69.4785912 C89.6275862,68.6912983 90.5448276,67.1167127 91.2,65.4765193 C92.9034483,61.0151934 93.1,54.9792818 90.937931,50.5835635 C89.1689655,46.9751381 85.3689655,43.8915746 81.1758621,44.3508287 C77.3103448,44.7444751 74.2965517,47.8936464 74.2310345,51.7645028 C74.2310345,53.0766575 76.1965517,53.0766575 76.1965517,51.8301105 L76.1965517,51.8301105 Z" id="Path" fill="#000000"></path>
                        <path d="M80.062069,87.7831492 C79.8655172,98.6084254 84.6482759,108.974448 93.1655172,115.732044 C94.1482759,116.519337 95.5241379,115.141575 94.5413793,114.354282 C86.4172414,107.924724 81.8310345,98.214779 82.0275862,87.7831492 C82.0275862,86.5366022 80.062069,86.5366022 80.062069,87.7831492 L80.062069,87.7831492 Z" id="Path" fill="#000000"></path>
                        <path d="M63.1586207,117.175414 C65.6482759,124.064227 69.7103448,130.100138 75.1482759,134.95511 C76.0655172,135.808011 77.5068966,134.430249 76.5241379,133.577348 C71.2827586,128.919199 67.4172414,123.211326 64.9931034,116.650552 C64.6,115.469613 62.7,115.994475 63.1586207,117.175414 L63.1586207,117.175414 Z" id="Path" fill="#000000"></path>
                        <path d="M75.6068966,135.611188 C81.2413793,137.645028 86.8758621,132.855663 90.3482759,128.853591 C94.0172414,124.654696 97.2275862,119.209254 95.6551724,113.501381 C95.3275862,112.254834 93.4275862,112.779696 93.7551724,114.026243 C95.0655172,119.012431 92.1172414,123.867403 88.9068966,127.475829 C85.8931034,130.887431 80.9793103,135.479972 76.0655172,133.708564 C74.9517241,133.249309 74.4275862,135.151934 75.6068966,135.611188 L75.6068966,135.611188 Z" id="Path" fill="#000000"></path>
                        <path d="M19.6551724,67.9696133 C18.8034483,65.5421271 20.7689655,62.9178177 22.2103448,61.2120166 C24.3724138,58.5220994 27.7137931,57.8004144 30.2034483,60.5559392 C33.0862069,63.7051105 33.8724138,69.3473757 34.2655172,73.4150552 C34.5275862,76.2361878 33.5448276,79.8446133 35.1827586,82.3377072 C36.9517241,85.0276243 40.2275862,86.6022099 43.3068966,87.1926796 C44.5517241,87.4551105 45.0758621,85.5524862 43.8310345,85.2900552 C42.1931034,84.9620166 40.7517241,84.4371547 39.3103448,83.5186464 C36.9517241,81.9440608 36.4275862,80.2382597 36.362069,77.4171271 C36.2965517,74.9896409 36.2310345,72.6277624 35.837931,70.2002762 C35.1827586,66.1982044 34.0689655,61.0808011 30.7931034,58.390884 C28.0413793,56.0946133 24.6344828,56.160221 21.9482759,58.4564917 C19.3931034,60.6871547 16.4448276,64.9516575 17.6896552,68.4288674 C18.2137931,69.6754144 20.1137931,69.1505525 19.6551724,67.9696133 L19.6551724,67.9696133 Z" id="Path" fill="#000000"></path>
                        <path d="M37.8034483,53.7983425 C38.262069,45.8598066 48.1551724,42.9730663 52.7413793,49.468232 C53.462069,50.5179558 55.1655172,49.5338398 54.4448276,48.484116 C48.7448276,40.3487569 36.4275862,43.8259669 35.837931,53.7983425 C35.7724138,55.0448895 37.737931,55.0448895 37.8034483,53.7983425 L37.8034483,53.7983425 Z" id="Path" fill="#000000"></path>
                        <path d="M28.8931034,73.218232 C27.9758621,71.9716851 27.4517241,70.5939227 27.3862069,69.0849448 C26.862069,69.3473757 26.4034483,69.6754144 25.8793103,69.9378453 C27.3862069,70.9219613 28.1724138,72.496547 28.1068966,74.2679558 C28.5,73.9399171 28.9586207,73.6118785 29.3517241,73.3494475 C27.7137931,72.7589779 26.6655172,70.9219613 26.9931034,69.2161602 C26.5344828,69.4129834 26.0103448,69.6098066 25.5517241,69.8066298 C26.337931,70.265884 26.9931034,70.9219613 27.4517241,71.7748619 C27.6482759,72.1685083 27.7793103,72.5621547 27.8448276,73.0214088 C27.8448276,73.3494475 27.8448276,72.9558011 27.7793103,72.8245856 C27.6482759,72.5621547 27.5172414,72.3653315 27.3862069,72.1029006 C26.862069,70.9219613 25.1586207,71.9716851 25.6827586,73.0870166 C26.0758621,74.0055249 26.7310345,74.9896409 27.9103448,75.0552486 C28.8931034,75.1208564 29.7448276,74.464779 29.8758621,73.480663 C30.0724138,71.3156077 28.3689655,69.1505525 26.6,68.1664365 C26.0758621,67.8383978 25.2896552,68.1008287 25.1586207,68.7569061 C24.6344828,71.5780387 26.2068966,74.3335635 28.8931034,75.3176796 C29.5482759,75.5145028 30.137931,74.9896409 30.137931,74.3991713 C30.2034483,71.9060773 29.0241379,69.6754144 26.9275862,68.3632597 C26.337931,67.9696133 25.4206897,68.4944751 25.4206897,69.2161602 C25.4862069,71.0531768 26.0758621,72.8245856 27.1896552,74.3335635 C27.9758621,75.2520718 29.6793103,74.2679558 28.8931034,73.218232 L28.8931034,73.218232 Z" id="Path" fill="#000000"></path>
                        <path d="M47.237931,60.5559392 C46.9103448,60.1622928 46.6482759,59.7030387 46.5172414,59.1781768 C46.5172414,59.0469613 46.3862069,58.2596685 46.5172414,58.1940608 C46.6482759,58.128453 46.9758621,59.1781768 47.0413793,59.2437845 C47.1724138,59.7686464 47.1068966,60.359116 46.8448276,60.8183702 C47.3034483,60.6871547 47.762069,60.5559392 48.2206897,60.4903315 C46.5827586,59.5718232 45.7965517,57.8660221 46.0586207,56.0290055 C45.5344828,56.2914365 45.0758621,56.6194751 44.5517241,56.8819061 C46.3862069,57.6691989 47.4344828,59.5718232 46.9758621,61.5400552 C47.3689655,61.343232 47.762069,61.0808011 48.1551724,60.8839779 C47.1724138,60.5559392 46.3862069,59.7030387 46.1896552,58.6533149 C46.1896552,58.5877072 46.1896552,57.9972376 46.1241379,57.9972376 C45.9931034,58.0628453 45.862069,58.128453 45.6655172,58.1940608 C45.7310345,58.3252762 45.862069,58.5220994 45.9275862,58.6533149 C46.1896552,59.375 46.1896552,60.0966851 46.1241379,60.8839779 C46.7137931,60.621547 47.237931,60.4247238 47.8275862,60.1622928 C47.237931,59.7030387 46.7793103,59.1781768 46.4517241,58.4564917 C45.862069,57.3411602 44.1586207,58.3252762 44.7482759,59.4406077 C45.1413793,60.2279006 45.7310345,60.9495856 46.4517241,61.5400552 C47.1724138,62.1305249 48.0241379,61.7368785 48.1551724,60.8183702 C48.2862069,59.5062155 48.1551724,57.7348066 47.1724138,56.7506906 C46.3862069,55.9633978 44.9448276,55.8977901 44.4206897,57.0787293 C43.3724138,59.375 45.6,62.0649171 47.6310345,62.7866022 C48.1551724,62.9834254 48.7448276,62.589779 48.8103448,62.1305249 C49.5310345,59.375 48.1551724,56.3570442 45.4689655,55.2417127 C44.7482759,54.913674 44.0931034,55.3073204 43.962069,56.0946133 C43.6344828,58.5877072 44.9448276,61.0151934 47.1068966,62.2617403 C47.5,62.5241713 48.2206897,62.3929558 48.4827586,61.9337017 C49.0068966,60.6871547 49.137931,59.4406077 48.6793103,58.1940608 C48.2862069,57.2099448 47.4344828,56.160221 46.3206897,56.2914365 C43.437931,56.6194751 44.6827586,60.7527624 45.862069,62.0649171 C46.7137931,62.9178177 48.0896552,61.4744475 47.237931,60.5559392 L47.237931,60.5559392 Z" id="Path" fill="#000000"></path>
                        <path d="M64.337931,116.978591 C64.337931,117.044199 64.337931,117.044199 64.2724138,117.109807 C64.6655172,116.912983 65.0586207,116.650552 65.4517241,116.453729 C65.3862069,116.453729 65.3206897,116.388122 65.2551724,116.388122 C65.4517241,116.847376 65.6482759,117.372238 65.8448276,117.831492 C65.9758621,117.569061 67.7448276,116.71616 68.2689655,116.256906 C69.4482759,115.27279 70.4310345,113.960635 71.3482759,112.714088 C73.3793103,110.024171 74.8862069,107.071823 76.1310345,103.98826 C75.4758621,103.791436 74.8862069,103.660221 74.2310345,103.463398 C72.2655172,109.105663 70.8896552,116.978591 65.3862069,120.324586 C65.8448276,120.78384 66.3034483,121.243094 66.762069,121.702348 C68.0724138,119.734116 69.3827586,117.700276 70.6931034,115.732044 C71.2827586,114.813536 69.9068966,113.698204 69.1206897,114.551105 C68.0724138,115.666436 66.9586207,116.847376 65.9103448,117.962707 C66.3689655,118.421961 66.8275862,118.881215 67.2862069,119.34047 C68.2689655,118.15953 69.1862069,116.912983 70.037931,115.666436 C70.6931034,114.747928 69.2517241,113.632597 68.4655172,114.485497 C67.5482759,115.469613 66.6310345,116.191298 65.4517241,116.781768 C65.9758621,117.044199 66.4344828,117.372238 66.9586207,117.634669 C66.9586207,117.437845 66.8931034,117.241022 66.8931034,117.044199 C66.762069,115.797652 64.7965517,115.797652 64.9275862,117.044199 C64.9275862,117.241022 64.9931034,117.437845 64.9931034,117.634669 C65.0586207,118.356354 65.7793103,118.881215 66.5,118.487569 C67.8103448,117.765884 68.8586207,116.978591 69.9068966,115.86326 C69.3827586,115.469613 68.8586207,115.075967 68.3344828,114.68232 C67.5482759,115.797652 66.762069,116.912983 65.9103448,117.962707 C65.1241379,118.946823 66.4344828,120.324586 67.2862069,119.34047 C68.3344828,118.225138 69.4482759,117.044199 70.4965517,115.928867 C69.9724138,115.535221 69.4482759,115.141575 68.9241379,114.747928 C67.6137931,116.71616 66.3034483,118.75 64.9931034,120.718232 C64.4689655,121.571133 65.5172414,122.555249 66.3689655,122.095994 C72.3965517,118.421961 73.9689655,110.286602 76.1310345,104.053867 C76.5241379,102.80732 74.6896552,102.413674 74.2310345,103.529006 C72.8551724,106.875 71.0862069,110.155387 68.7275862,112.910912 C67.6137931,114.223066 65.8448276,114.944751 64.7965517,116.125691 C64.5344828,116.388122 64.2724138,116.453729 64.1413793,116.781768 C63.8137931,117.372238 64.0758621,117.962707 64.7310345,118.225138 C64.7965517,118.225138 64.862069,118.290746 64.9275862,118.290746 C65.4517241,118.487569 65.9758621,118.093923 66.1068966,117.634669 C66.1068966,117.569061 66.1068966,117.569061 66.1724138,117.503453 C66.6965517,116.322514 64.7965517,115.797652 64.337931,116.978591 L64.337931,116.978591 Z" id="Path" fill="#000000"></path>
                        <path d="M71.6103448,115.010359 C72.2,114.354282 72.5931034,113.698204 72.7896552,112.910912 C73.1172414,111.729972 71.6103448,111.336326 71.0206897,112.123619 C69.6448276,113.960635 68.2689655,115.797652 66.8931034,117.634669 C66.1068966,118.618785 67.8103448,119.602901 68.5965517,118.618785 C69.9724138,116.781768 71.3482759,114.944751 72.7241379,113.107735 C72.1344828,112.845304 71.5448276,112.582873 70.9551724,112.320442 C70.8241379,112.779696 70.6275862,113.173343 70.3,113.566989 C69.3827586,114.616713 70.8241379,115.994475 71.6103448,115.010359 L71.6103448,115.010359 Z" id="Path" fill="#000000"></path>
                        <path d="M41.3413793,98.7396409 C39.5068966,95.0656077 41.4724138,93.6878453 45.1413793,92.7037293 C45.6,92.5725138 46.0586207,92.5069061 46.4517241,92.3100829 C48.0241379,91.5883978 48.9413793,90.0138122 49.5965517,88.5048343 C50.6448276,86.2741713 51.2344828,83.8466851 52.6103448,81.8128453 C55.4931034,77.4171271 60.6034483,77.6139503 62.2413793,82.8625691 C63.8793103,88.1111878 61.8482759,93.9502762 58.3758621,97.9523481 C56.6724138,99.9205801 54.5758621,101.757597 52.0862069,102.610497 C49.9241379,103.39779 48.0241379,103.135359 45.9275862,102.216851 C44.4206897,101.560773 41.6689655,100.248619 41.2758621,98.5428177 C41.0137931,97.2962707 39.1137931,97.8211326 39.3758621,99.0676796 C40.0965517,102.479282 45.2068966,104.578729 48.2862069,105.037983 C51.6275862,105.562845 54.7724138,103.922652 57.3275862,101.823204 C63.0275862,97.0994475 66.5655172,88.7672652 63.8137931,81.5504144 C60.8655172,73.7430939 52.8724138,76.6298343 49.9241379,82.7969613 C49.0068966,84.6995856 48.5482759,87.9143646 47.0413793,89.2921271 C45.1413793,91.0635359 42.7172414,90.4074586 40.7517241,91.785221 C38,93.753453 38.262069,97.230663 39.637931,99.9205801 C40.2275862,100.904696 41.9310345,99.9205801 41.3413793,98.7396409 L41.3413793,98.7396409 Z" id="Path" fill="#000000"></path>
                        <path d="M40.0310345,96.7058011 C50.1862069,96.4433702 55.1,86.9958564 57.3275862,78.3356354 C57.6551724,77.0890884 55.7551724,76.5642265 55.4275862,77.8107735 C53.462069,85.5524862 49.2034483,94.4751381 40.0310345,94.7375691 C38.7862069,94.8031768 38.7862069,96.7714088 40.0310345,96.7058011 L40.0310345,96.7058011 Z" id="Path" fill="#000000"></path>
                        <path d="M13.1034483,73.8087017 C11.9241379,74.464779 4.78275862,66.6574586 1.76896552,56.2258287 C-0.45862069,48.6153315 0.196551724,41.8577348 0.982758621,37.593232 C2.09655172,34.1816298 3.66896552,30.5075967 5.83103448,26.7679558 C15.1344828,10.7596685 29.8103448,3.21477901 37.4103448,0 C35.837931,1.5089779 34.0034483,3.47720994 32.3,5.97030387 C29.9413793,9.25069061 28.4344828,12.3342541 27.4517241,14.8929558 C29.6793103,12.9903315 32.2344828,11.0877072 34.9862069,9.25069061 C41.1448276,5.11740331 47.1068966,2.16505525 52.2827586,0.0656077348 C51.4965517,3.41160221 50.6448276,6.75759669 49.8586207,10.0379834 C51.6931034,8.98825967 54.2482759,7.47928177 57.3931034,5.97030387 C60.8655172,4.3301105 68.0068966,0.918508287 69.1206897,2.42748619 C69.4482759,2.88674033 69.0551724,3.41160221 68.4655172,5.31422652 C67.6793103,7.80732044 67.4172414,9.90676796 67.2862069,11.2845304 C69.3172414,10.9564917 71.6103448,10.6940608 74.1,10.628453 C76.8517241,10.4972376 79.3413793,10.628453 81.5689655,10.8252762 C80.7827586,13.843232 79.9965517,16.7955801 79.2103448,19.8135359 C80.7827586,20.4040055 83.0103448,21.519337 85.3034483,23.3563536 C91.462069,28.4081492 93.2310345,35.2313536 93.6896552,37.9212707 C94.6724138,44.3508287 93.1,49.730663 91.9206897,52.683011 C88.7758621,45.9910221 82.5517241,43.3667127 79.0137931,45.0069061 C76.8517241,45.9910221 74.362069,49.1401934 74.6241379,52.3549724 C74.6896552,53.0766575 74.8862069,53.7327348 75.0827586,54.191989 C72.7896552,52.0925414 69.3172414,49.2714088 64.7965517,46.6470994 C60.2758621,44.0227901 55.2310345,41.070442 48.5482759,40.2175414 C35.9689655,38.5773481 26.1413793,45.4661602 23.5206897,47.3687845 C19.4586207,50.2555249 12.8413793,54.913674 11.662069,62.3273481 C10.4827586,68.5600829 14.0206897,73.3494475 13.1034483,73.8087017 Z" id="Path" fill="#414042"></path>
                        <path d="M62.962069,45.0069061 C64.9931034,49.5994475 67.7448276,56.7506906 69.2517241,65.7389503 C70.8241379,74.6616022 72.7896552,86.1429558 68.0068966,98.8708564 C66.3689655,103.200967 62.5034483,111.533149 53.3310345,119.34047 C55.4931034,119.274862 59.2275862,118.881215 63.1586207,116.781768 C69.5793103,113.435773 72.3965517,107.859116 73.2482759,105.890884 C76.3275862,108.90884 80.4551724,113.632597 83.6,120.324586 C85.3689655,124.064227 86.4827586,127.541436 87.137931,130.428177 C88.9068966,128.853591 92.1827586,125.441989 93.6896552,120.062155 C94.2793103,117.962707 94.4758621,116.060083 94.4758621,114.485497 C90.6758621,112.38605 88.2517241,109.827348 86.8758621,108.187155 C86.2862069,107.46547 80.4551724,100.117403 80.7827586,89.9482044 C80.9137931,86.2741713 81.7,86.2085635 82.2896552,80.5662983 C82.8137931,75.5145028 82.5517241,71.25 82.2896552,68.4288674 C85.6310345,69.8066298 87.3344828,69.1505525 88.1206897,68.6912983 C89.6275862,67.7727901 90.0206897,66.1325967 91.3965517,57.8004144 C92.1172414,53.3390884 92.5103448,51.1084254 92.6413793,49.9274862 C93.4275862,43.5635359 93.8206897,40.3487569 93.4275862,37.7900552 C92.3137931,30.5075967 87.662069,25.6526243 86.0896552,24.1436464 C83.4689655,21.5849448 80.7827586,20.1415746 79.0137931,19.3542818 C79.8,16.5987569 80.5206897,13.7776243 81.3068966,11.0220994 C77.5724138,15.4178177 74.1,18.4357735 71.7413793,20.4040055 C65.8448276,25.1277624 62.437931,26.2430939 58.3758621,30.7700276 C55.1655172,34.3128453 53.3310345,37.9212707 52.2827586,40.3487569 C55.8862069,41.9889503 59.4241379,43.4979282 62.962069,45.0069061 Z" id="Path" fill="#494949" opacity="0.11"></path>
                        <path d="M35.9689655,0.721685083 C33.7413793,1.7058011 28.5,4.46132597 24.8310345,10.3004144 C23.9137931,11.7437845 21.8827586,15.3522099 21.2931034,20.4040055 C20.637931,25.980663 22.0137931,30.3763812 22.8,32.5414365 C23.062069,27.0959945 24.3724138,18.304558 29.6137931,9.25069061 C31.6448276,5.8390884 33.8724138,3.0179558 35.9689655,0.721685083 Z" id="Path" fill="#494949" opacity="0.17"></path>
                        <path d="M82.2896552,68.7569061 C82.0931034,68.6912983 81.7,69.4129834 80.2586207,74.3991713 C78.2931034,81.156768 77.2448276,86.1429558 76.6551724,88.6360497 C75.8034483,92.2444751 74.362069,97.3618785 71.6758621,103.529006 C76.3275862,104.447514 80.9793103,105.366022 85.6310345,106.218923 C83.9275862,102.479282 81.8965517,97.0994475 81.1103448,90.4074586 C79.8655172,78.926105 82.9448276,68.8881215 82.2896552,68.7569061 Z" id="Path" fill="#494949" opacity="0.08"></path>
                    </g>
                </g>
            </g>
        </g>
    </g>
</svg>
