<?xml version="1.0" encoding="UTF-8"?>
<svg width="30px" height="30px" viewBox="0 0 30 30" version="1.1" xmlns="http://www.w3.org/2000/svg" xmlns:xlink="http://www.w3.org/1999/xlink">
    <!-- Generator: sketchtool 64 (101010) - https://sketch.com -->
    <title>B9B7C295-3573-426B-B847-E1B16C7C55A4</title>
    <desc>Created with sketchtool.</desc>
    <g id="Page-1" stroke="none" stroke-width="1" fill="none" fill-rule="evenodd">
        <g id="Web_4_white" transform="translate(-657.000000, -495.000000)">
            <g id="upload" transform="translate(619.000000, 449.000000)">
                <g id="loader" transform="translate(37.000000, 45.000000)">
                    <rect id="area" x="0" y="0" width="32" height="32"></rect>
                    <path d="M14.6666667,2.66666667 L14.6666667,8 C14.6666667,8.73637967 15.2636203,9.33333333 16,9.33333333 C16.7363797,9.33333333 17.3333333,8.73637967 17.3333333,8 L17.3333333,2.66666667 C17.3333333,1.930287 16.7363797,1.33333333 16,1.33333333 C15.2636203,1.33333333 14.6666667,1.930287 14.6666667,2.66666667 Z" id="Shape" fill="#FFFFFF" fill-rule="nonzero"></path>
                    <path d="M14.6666667,24 L14.6666667,29.3333333 C14.6666667,30.069713 15.2636203,30.6666667 16,30.6666667 C16.7363797,30.6666667 17.3333333,30.069713 17.3333333,29.3333333 L17.3333333,24 C17.3333333,23.2636203 16.7363797,22.6666667 16,22.6666667 C15.2636203,22.6666667 14.6666667,23.2636203 14.6666667,24 Z" id="Shape" fill="#FFFFFF" fill-rule="nonzero"></path>
                    <path d="M5.63052429,7.51614237 L9.40385763,11.2894757 C9.92455668,11.8101748 10.7687767,11.8101748 11.2894757,11.2894757 C11.8101748,10.7687767 11.8101748,9.92455668 11.2894757,9.40385763 L7.51614237,5.63052429 C6.99544332,5.10982524 6.15122335,5.10982524 5.63052429,5.63052429 C5.10982524,6.15122335 5.10982524,6.99544332 5.63052429,7.51614237 Z" id="Shape" fill="#FFFFFF" fill-rule="nonzero"></path>
                    <path d="M20.7105243,22.5961424 L24.4838576,26.3694757 C25.0045567,26.8901748 25.8487767,26.8901748 26.3694757,26.3694757 C26.8901748,25.8487767 26.8901748,25.0045567 26.3694757,24.4838576 L22.5961424,20.7105243 C22.0754433,20.1898252 21.2312233,20.1898252 20.7105243,20.7105243 C20.1898252,21.2312233 20.1898252,22.0754433 20.7105243,22.5961424 Z" id="Shape" fill="#FFFFFF" fill-rule="nonzero"></path>
                    <path d="M2.66666667,17.3333333 L8,17.3333333 C8.73637967,17.3333333 9.33333333,16.7363797 9.33333333,16 C9.33333333,15.2636203 8.73637967,14.6666667 8,14.6666667 L2.66666667,14.6666667 C1.930287,14.6666667 1.33333333,15.2636203 1.33333333,16 C1.33333333,16.7363797 1.930287,17.3333333 2.66666667,17.3333333 Z" id="Shape" fill="#FFFFFF" fill-rule="nonzero"></path>
                    <path d="M24,17.3333333 L29.3333333,17.3333333 C30.069713,17.3333333 30.6666667,16.7363797 30.6666667,16 C30.6666667,15.2636203 30.069713,14.6666667 29.3333333,14.6666667 L24,14.6666667 C23.2636203,14.6666667 22.6666667,15.2636203 22.6666667,16 C22.6666667,16.7363797 23.2636203,17.3333333 24,17.3333333 Z" id="Shape" fill="#FFFFFF" fill-rule="nonzero"></path>
                    <path d="M7.51614237,26.3694757 L11.2894757,22.5961424 C11.8101748,22.0754433 11.8101748,21.2312233 11.2894757,20.7105243 C10.7687767,20.1898252 9.92455668,20.1898252 9.40385763,20.7105243 L5.63052429,24.4838576 C5.10982524,25.0045567 5.10982524,25.8487767 5.63052429,26.3694757 C6.15122335,26.8901748 6.99544332,26.8901748 7.51614237,26.3694757 Z" id="Shape" fill="#FFFFFF" fill-rule="nonzero"></path>
                    <path d="M22.5961424,11.2894757 L26.3694757,7.51614237 C26.8901748,6.99544332 26.8901748,6.15122335 26.3694757,5.63052429 C25.8487767,5.10982524 25.0045567,5.10982524 24.4838576,5.63052429 L20.7105243,9.40385763 C20.1898252,9.92455668 20.1898252,10.7687767 20.7105243,11.2894757 C21.2312233,11.8101748 22.0754433,11.8101748 22.5961424,11.2894757 Z" id="Shape" fill="#FFFFFF" fill-rule="nonzero"></path>
                </g>
            </g>
        </g>
    </g>
</svg>